<svg xmlns="http://www.w3.org/2000/svg" width="188.962" height="196.8" viewBox="0 0 188.962 196.8">
    <defs>
        <style>
            .cls-2{fill:#fff}.cls-3{fill:#ffe0a9}.cls-4{fill:#ffc54f}.cls-5{fill:#5da8f9}.cls-11,.cls-7{fill:#263238}.cls-8{fill:#eb9481}.cls-9{opacity:.1}.cls-10{fill:#ffb4af}.cls-11{opacity:.15}.cls-12{fill:#2694f7}.cls-15{fill:#37474f}.cls-16{fill:#7dca7a}
        </style>
    </defs>
    <g id="Estimate1" transform="translate(-47.5 -30.5)">
        <g id="freepik--Desk--inject-2" transform="translate(47.5 205.791)">
            <path id="Path_3228" fill="#e1e5f9" d="M47.5 406.387l23.609-.093 23.609-.047 47.264-.047 47.217.047 23.655.047 23.609.093-23.609.14H189.2l-47.217.093-47.264-.093h-23.61z" transform="translate(-47.5 -406.2)"/>
        </g>
        <g id="Group_12058" transform="translate(166.616 30.5)">
            <g id="Group_12057">
                <g id="Group_12017">
                    <g id="Group_12016">
                        <g id="Group_12014" transform="translate(.467 .467)">
                            <path id="Path_3229" d="M362.961 124.721h-53a6.213 6.213 0 0 1-6.159-6.159v-80.9a6.213 6.213 0 0 1 6.159-6.159h52.956a6.213 6.213 0 0 1 6.159 6.159v80.857a6.123 6.123 0 0 1-6.115 6.202z" class="cls-2" transform="translate(-303.8 -31.5)"/>
                        </g>
                        <path id="Rectangle_1337" d="M0 0H65.273V7.372H0z" class="cls-3" transform="translate(.467 7.885)"/>
                        <g id="Group_12015">
                            <path id="Path_3230" d="M362.428 124.654h-53a6.651 6.651 0 0 1-6.625-6.625v-80.9a6.651 6.651 0 0 1 6.625-6.625h52.956a6.651 6.651 0 0 1 6.625 6.625v80.857a6.621 6.621 0 0 1-6.581 6.668zm-53-93.221a5.655 5.655 0 0 0-5.692 5.692v80.857a5.655 5.655 0 0 0 5.692 5.692h52.956a5.655 5.655 0 0 0 5.692-5.692V37.125a5.655 5.655 0 0 0-5.692-5.692z" class="cls-4" transform="translate(-302.8 -30.5)"/>
                        </g>
                    </g>
                </g>
                <g id="Group_12050" transform="translate(7.885 22.955)">
                    <g id="Group_12025">
                        <g id="Group_12019" transform="translate(13.997 .467)">
                            <g id="Group_12018">
                                <path id="Rectangle_1338" d="M0 0H20.949V0.747H0z" class="cls-4"/>
                            </g>
                        </g>
                        <g id="Group_12021" transform="translate(13.997 4.386)">
                            <g id="Group_12020">
                                <path id="Rectangle_1339" d="M0 0H27.901V0.747H0z" class="cls-4"/>
                            </g>
                        </g>
                        <g id="Group_12024">
                            <g id="Group_12023">
                                <g id="Group_12022">
                                    <path id="Path_3231" d="M327.818 87.818H319.7V79.7h8.118zm-7.185-.933h6.252v-6.252h-6.252z" class="cls-4" transform="translate(-319.7 -79.7)"/>
                                </g>
                            </g>
                        </g>
                    </g>
                    <g id="Group_12033" transform="translate(0 13.017)">
                        <g id="Group_12027" transform="translate(13.997 .467)">
                            <g id="Group_12026">
                                <path id="Rectangle_1340" d="M0 0H30.794V0.747H0z" class="cls-4"/>
                            </g>
                        </g>
                        <g id="Group_12029" transform="translate(13.997 4.386)">
                            <g id="Group_12028">
                                <path id="Rectangle_1341" d="M0 0H16.003V0.747H0z" class="cls-4"/>
                            </g>
                        </g>
                        <g id="Group_12032">
                            <g id="Group_12031">
                                <g id="Group_12030">
                                    <path id="Path_3232" d="M327.818 115.718H319.7V107.6h8.118zm-7.185-.933h6.252v-6.252h-6.252z" class="cls-4" transform="translate(-319.7 -107.6)"/>
                                </g>
                            </g>
                        </g>
                    </g>
                    <g id="Group_12041" transform="translate(0 26.128)">
                        <g id="Group_12035" transform="translate(13.997 .467)">
                            <g id="Group_12034">
                                <path id="Rectangle_1342" d="M0 0H23.982V0.747H0z" class="cls-4"/>
                            </g>
                        </g>
                        <g id="Group_12037" transform="translate(13.997 4.386)">
                            <g id="Group_12036">
                                <path id="Rectangle_1343" d="M0 0H32.007V0.747H0z" class="cls-4"/>
                            </g>
                        </g>
                        <g id="Group_12040">
                            <g id="Group_12039">
                                <g id="Group_12038">
                                    <path id="Path_3233" d="M327.818 143.818H319.7V135.7h8.118zm-7.185-.933h6.252v-6.252h-6.252z" class="cls-4" transform="translate(-319.7 -135.7)"/>
                                </g>
                            </g>
                        </g>
                    </g>
                    <g id="Group_12049" transform="translate(0 39.145)">
                        <g id="Group_12043" transform="translate(13.997 .467)">
                            <g id="Group_12042">
                                <path id="Rectangle_1344" d="M0 0H27.061V0.747H0z" class="cls-4"/>
                            </g>
                        </g>
                        <g id="Group_12045" transform="translate(13.997 4.386)">
                            <g id="Group_12044">
                                <path id="Rectangle_1345" d="M0 0H14.697V0.747H0z" class="cls-4"/>
                            </g>
                        </g>
                        <g id="Group_12048">
                            <g id="Group_12047">
                                <g id="Group_12046">
                                    <path id="Path_3234" d="M327.818 171.718H319.7V163.6h8.118zm-7.185-.933h6.252v-6.252h-6.252z" class="cls-4" transform="translate(-319.7 -163.6)"/>
                                </g>
                            </g>
                        </g>
                    </g>
                </g>
                <g id="Group_12053" transform="translate(9.471 20.996)">
                    <g id="Group_12052">
                        <g id="Group_12051">
                            <path id="Path_3235" d="M325.9 85.485l-2.8-3.639 1.586-1.213 1.213 1.493 4.946-6.625 1.586 1.213z" class="cls-5" transform="translate(-323.1 -75.5)"/>
                        </g>
                    </g>
                </g>
                <g id="Group_12056" transform="translate(9.471 33.826)">
                    <g id="Group_12055">
                        <g id="Group_12054">
                            <path id="Path_3236" d="M325.9 113.078l-2.8-3.639 1.586-1.213 1.213 1.493 4.946-6.719 1.586 1.213z" class="cls-5" transform="translate(-323.1 -103)"/>
                        </g>
                    </g>
                </g>
            </g>
            <path id="Path_3237" d="M318 206.787c1.96-.093 3.873-.093 5.832-.14l5.832-.047 5.832.047c1.96.047 3.873.047 5.832.14-1.96.093-3.873.093-5.832.14l-5.832.047-5.832-.047c-1.959-.047-3.872-.047-5.832-.14z" class="cls-4" transform="translate(-310.908 -124.437)"/>
            <path id="Path_3238" fill="#010000" d="M319.3 199.606c.56-.373 1.12-.747 1.726-1.073a7.408 7.408 0 0 1 1.866-.84c.093 0 .187-.047.28-.047a.224.224 0 0 1 .28.093.941.941 0 0 1 .14.513 7.634 7.634 0 0 1-.093 1.026c-.14.653-.28 1.353-.467 2.006a29.317 29.317 0 0 1-1.353 3.873 5.807 5.807 0 0 1-.467.933c-.047.093-.14.14-.187.233a.242.242 0 0 1-.187.093.171.171 0 0 1-.14-.047l-.047-.047a1.242 1.242 0 0 1-.14-.56 6.364 6.364 0 0 1 .373-2.053 13.544 13.544 0 0 1 .747-1.913 5.913 5.913 0 0 1 1.213-1.68 1.966 1.966 0 0 1 .933-.467.927.927 0 0 1 .513.047.955.955 0 0 1 .373.373l.28.42a.376.376 0 0 0 .42.14 1.953 1.953 0 0 0 .84-.513 2.565 2.565 0 0 0 .42-.327 1.019 1.019 0 0 1 .233-.14c.093-.047.187-.093.28 0 .14.187.093.327.187.513a.351.351 0 0 0 .327.233 3.266 3.266 0 0 0 .747-.653 9.339 9.339 0 0 0 .653-.747c.467-.513.886-1.026 1.353-1.54.233-.233.467-.513.7-.747a2.336 2.336 0 0 1 .373-.327c.093-.047.14-.093.233-.14.047 0 .093-.047.14-.047s.14.047.14.093a1.183 1.183 0 0 1 .093.56 1.984 1.984 0 0 1-.093.513l-.28.98a9.347 9.347 0 0 1-.793 1.866 2.566 2.566 0 0 1-.327.42.4.4 0 0 1-.28.14.663.663 0 0 1-.28-.093 1.161 1.161 0 0 1-.7-.84.41.41 0 0 1 .047-.327l.14-.14c.047-.047.093-.047.187-.047a.94.94 0 0 1 .513.14c.327.14.653.233.933.373s.607.28.933.42c.14.047.327.14.467.187.093 0 .14.047.233.047a.281.281 0 0 0 .187-.047c.28-.14.42-.42.7-.7a1.112 1.112 0 0 1 .513-.28.257.257 0 0 1 .233.093.354.354 0 0 1 .093.187c0 .093-.047.187-.047.28a1.313 1.313 0 0 0-.047.373h.373a2.447 2.447 0 0 0 .84-.467l.42-.28a1.242 1.242 0 0 1 .56-.14 2.437 2.437 0 0 1 .887.653 1.257 1.257 0 0 0 .373.327.23.23 0 0 0 .14.047c.047-.047.14-.093.187-.14a4.994 4.994 0 0 0 .747-.653 9.665 9.665 0 0 0 1.306-1.493 1.848 1.848 0 0 0 .327-.886c0-.327-.327-.467-.653-.513a5.8 5.8 0 0 0-2.006.047 3.873 3.873 0 0 0-.98.28 1.892 1.892 0 0 0-.42.233c-.14.093-.233.233-.187.327a.493.493 0 0 0 .327.28 1.948 1.948 0 0 0 .467.187l.98.28a23.887 23.887 0 0 0 4.059.373 23.753 23.753 0 0 1-4.059-.28 7.717 7.717 0 0 1-.98-.28 1.4 1.4 0 0 1-.467-.187.662.662 0 0 1-.42-.373.547.547 0 0 1 .233-.513 4.107 4.107 0 0 1 .467-.28 3.873 3.873 0 0 1 .98-.28 6.07 6.07 0 0 1 2.053-.047 1.671 1.671 0 0 1 .513.187.536.536 0 0 1 .28.513 1.734 1.734 0 0 1-.373 1.026 7.126 7.126 0 0 1-1.353 1.54 5.37 5.37 0 0 1-.793.653c-.093.047-.14.093-.233.14a.527.527 0 0 1-.373-.047c-.14-.093-.28-.233-.42-.327a2.245 2.245 0 0 0-.747-.56c-.233-.047-.56.187-.793.373a2.511 2.511 0 0 1-.933.467.7.7 0 0 1-.607-.047.5.5 0 0 1-.14-.327c0-.093.047-.187.047-.28s.047-.14.047-.233v-.047h-.047a.576.576 0 0 0-.373.187c-.233.233-.373.56-.746.747a.692.692 0 0 1-.327.047c-.093 0-.187-.047-.28-.047a2.275 2.275 0 0 1-.513-.187c-.327-.14-.607-.28-.933-.42a7.776 7.776 0 0 0-.933-.373 1.657 1.657 0 0 0-.467-.093.163.163 0 0 0-.14.233 1.192 1.192 0 0 0 .56.7.35.35 0 0 0 .233.047c.047 0 .093 0 .14-.093a1.123 1.123 0 0 0 .28-.373 10.257 10.257 0 0 0 .793-1.82l.28-.98c.047-.14.047-.327.093-.467a.806.806 0 0 0-.047-.467c-.047-.093-.233 0-.373.093a1.258 1.258 0 0 0-.373.327c-.233.233-.467.467-.7.747-.467.513-.886 1.026-1.353 1.54-.233.233-.467.513-.7.747a3.479 3.479 0 0 1-.793.653.363.363 0 0 1-.42-.28c-.047-.14-.047-.373-.14-.467s-.14 0-.187.047c-.093.047-.14.093-.233.14a2.564 2.564 0 0 0-.42.327 2.446 2.446 0 0 1-.886.513.466.466 0 0 1-.513-.187 2.193 2.193 0 0 1-.28-.42.735.735 0 0 0-.327-.327 1.587 1.587 0 0 0-.467-.047 1.734 1.734 0 0 0-.886.42 5.8 5.8 0 0 0-1.166 1.633 12.972 12.972 0 0 0-.747 1.866 7.181 7.181 0 0 0-.327 1.96 1.362 1.362 0 0 0 .093.42l.047.047a.046.046 0 0 0 .047-.047.644.644 0 0 0 .14-.187 5.317 5.317 0 0 0 .467-.886 28.944 28.944 0 0 0 1.4-3.826c.187-.653.327-1.306.467-1.96a6.96 6.96 0 0 0 .093-.98.841.841 0 0 0-.093-.467c-.047-.047-.093-.047-.187-.047a.35.35 0 0 0-.233.047 8.321 8.321 0 0 0-1.866.793 8.232 8.232 0 0 1-1.446 1.12z" transform="translate(-311.602 -118.889)"/>
        </g>
        <g id="freepik--Character--inject-2" transform="translate(52.258 95.288)">
            <path id="Path_3239" d="M138.587 247.425a42.029 42.029 0 0 0 8.025 5.319c-3.966-7.185-1.82-22.535-1.493-20.3 1.726 10.731 8.118 22.862 10.918 23.655h.047A36.392 36.392 0 0 0 176.8 254v-.047c-5.179-8.212-3.5-23.842-3.219-22.862 3.359 10.591 11.758 17.31 13.344 17.45 6.205-4.386 9.7-8.958 8.912-9.518-5.646-4.059-9.845-13.717-13.531-23.842-3.639-9.985-4.992-24.542-10.591-33.64-5.086-8.352-16.61-10.824-23.562-7.372-18.198 9.103-13.019 70.41-9.566 73.256z" class="cls-7" transform="translate(-99.02 -171.122)"/>
            <path id="Path_3240" d="M146.917 174.8a11.257 11.257 0 0 0-4.106 2.473 27.431 27.431 0 0 0-3.173 3.406 39.726 39.726 0 0 0-4.432 7.885c-2.426 5.506-3.733 16.563-4.386 22.4a93.293 93.293 0 0 0 0 17.683c.093 1.493.327 2.939.513 4.386l.653 4.386.84 4.339.98 4.339-.7-4.386-.56-4.386-.513-4.386c-.093-1.446-.28-2.939-.327-4.386a100.161 100.161 0 0 1 .233-17.543c.56-5.832 1.913-16.8 4.059-22.255a39.606 39.606 0 0 1 4.106-7.885 20.88 20.88 0 0 1 2.939-3.5 17.676 17.676 0 0 1 1.773-1.493 14.782 14.782 0 0 1 2.101-1.077z" class="cls-7" transform="translate(-96.479 -172.262)"/>
            <path id="Path_3241" d="M233.921 242.514a71.382 71.382 0 0 1-4.526-6.579 75.739 75.739 0 0 1-3.919-6.812c-1.213-2.333-2.286-4.666-3.266-7.092-.933-2.426-1.82-4.852-2.706-7.279-1.866-4.852-3.639-14.884-5.832-19.643-1.12-2.38-2.286-4.712-3.593-7a31.305 31.305 0 0 0-2.193-3.313A10.048 10.048 0 0 0 204.9 182a10.825 10.825 0 0 1 2.706 2.939 30.7 30.7 0 0 1 1.96 3.406c1.213 2.333 2.286 4.666 3.266 7.092 2.006 4.806 3.779 14.837 5.6 19.689.933 2.426 1.82 4.852 2.8 7.279a58.5 58.5 0 0 0 3.453 7.092 76.582 76.582 0 0 0 9.236 13.017z" class="cls-7" transform="translate(-136.219 -176.103)"/>
            <path id="Path_3242" d="M168.448 283.886c4.759 10.684 23.422 45.164 34.946 47.264 7.512 1.353 37.7-2.659 42.691-10.031 2.146-3.219-2.473-24.822-6.485-23.8-4.013.98-28.181 5.086-31.167 4.339-3.033-.747-26.268-25.708-34.853-31.774-14.836-10.54-7.698 8.216-5.132 14.002z" class="cls-8" transform="translate(-114.651 -221.3)"/>
            <path id="Path_3243" d="M227.291 293.867l1.82 32.66s-23.842 5.226-34.246 1.633c-12.644-4.386-31.12-43.484-33.686-49.923-4.152-10.545-2.986-16.937 2.893-15.4 2.286.607 5.319 2.38 9 5.646 3.873 3.406 26.035 25.335 33.033 29.487 3.923 2.335 21.186-4.103 21.186-4.103z" class="cls-5" transform="translate(-111.58 -219.103)"/>
            <path id="Path_3244" d="M214.929 328.863a8.372 8.372 0 0 0-1.82.933 6.662 6.662 0 0 0 1.96-.42 8.371 8.371 0 0 0 1.82-.933 5.91 5.91 0 0 0-1.96.42zM196.966 303.2a7.109 7.109 0 0 0-1.773.933 7.936 7.936 0 0 0 3.779-1.4 5.992 5.992 0 0 0-2.006.467zm-18.1-15.537a8.374 8.374 0 0 0-1.82.933 7.936 7.936 0 0 0 3.779-1.4 9.959 9.959 0 0 0-1.96.467zM192.02 322.8a8.372 8.372 0 0 0-1.82.933 7.936 7.936 0 0 0 3.779-1.4 9.958 9.958 0 0 0-1.96.467zm21.089-12.6a8.371 8.371 0 0 0-1.82.933 6.662 6.662 0 0 0 1.96-.42 8.372 8.372 0 0 0 1.82-.933 7.368 7.368 0 0 0-1.96.42zm-31.634-5.692a8.026 8.026 0 0 0-1.773.933 6.663 6.663 0 0 0 1.96-.42 8.028 8.028 0 0 0 1.773-.933 7 7 0 0 0-1.96.42zm47.4 18.056c-.093-.28-.187-.607-.28-.886a8.371 8.371 0 0 0-.933-1.82 6.661 6.661 0 0 0 .42 1.96 7.534 7.534 0 0 0 .793 1.633zm-25.055 1.82a8.371 8.371 0 0 0-.933-1.82 6.662 6.662 0 0 0 .42 1.96 8.371 8.371 0 0 0 .933 1.82 5.672 5.672 0 0 0-.42-1.96zm-15.817-27.994a7.108 7.108 0 0 0-.933-1.773 6.662 6.662 0 0 0 .42 1.96 7.109 7.109 0 0 0 .933 1.773 7 7 0 0 0-.415-1.961zm-17.45-17.17a8.37 8.37 0 0 0-.933-1.82 7.936 7.936 0 0 0 1.4 3.779 9.231 9.231 0 0 0-.467-1.96zm46.424 39.939a6.851 6.851 0 0 0-1.96-.607 7.831 7.831 0 0 0 3.686 1.68 8.222 8.222 0 0 0-1.726-1.073zm-7.177 17.962a6.851 6.851 0 0 0-1.96-.607 5.537 5.537 0 0 0 1.073.747l1.026-.047zM192.253 311.6a6.85 6.85 0 0 0-1.96-.607 7.88 7.88 0 0 0 3.639 1.68 7.9 7.9 0 0 0-1.68-1.073zm-26.595-23.049a6.851 6.851 0 0 0-1.96-.607 8.222 8.222 0 0 0 1.726 1.073 6.85 6.85 0 0 0 1.96.607 6.668 6.668 0 0 0-1.726-1.073zm16.47 28.461a6.851 6.851 0 0 0-.607 1.96 8.223 8.223 0 0 0 1.073-1.726 6.851 6.851 0 0 0 .607-1.96 7.179 7.179 0 0 0-1.073 1.726zm-8.865-18.29a6.851 6.851 0 0 0-.607 1.96 8.223 8.223 0 0 0 1.073-1.726 6.851 6.851 0 0 0 .607-1.96 8.223 8.223 0 0 0-1.073 1.726zm28.228 14.7a9.127 9.127 0 0 0-.607 1.913 7.178 7.178 0 0 0 1.073-1.726 6.85 6.85 0 0 0 .607-1.96 8.55 8.55 0 0 0-1.073 1.773zM159.5 279.126c.047.233.093.467.14.747a4.746 4.746 0 0 0 .42-1.54c-.187.233-.373.513-.56.793z" class="cls-2" transform="translate(-112.002 -226.992)"/>
            <path id="Path_3245" d="M295.3 365.291c-.42-4.806-1.4-24.588-1.306-28.881 0-.28.187-.373.233-.047 1.586 14.417 1.12 24.168 1.26 28.927-.001.094-.141.094-.187.001z" class="cls-7" transform="translate(-183.741 -258.334)"/>
            <path id="Path_3246" d="M161.288 278.258c2.52 6.439 21 45.537 33.686 49.923 3.079 1.073 7.465 1.353 11.944 1.26l-43.531-66.72a3.661 3.661 0 0 0-2.986.607c-2.333 1.866-2.101 7.325.887 14.93z" class="cls-9" transform="translate(-111.643 -219.124)"/>
            <path id="Path_3247" d="M71.2 329.326l65.46-.187-3.639-22.489s5.179-6.3 4.2-13.111c-1.073-7.465-14.557-26.408-15.677-27.481-4.572-4.292-9.378-5.039-14-3.5C86.13 276.09 71.2 329.326 71.2 329.326z" class="cls-5" transform="translate(-64.9 -218.683)"/>
            <path id="Path_3248" d="M80.76 318.363a11.936 11.936 0 0 0-1.12.513l-.14.373a12.256 12.256 0 0 0 1.4-.373 8.372 8.372 0 0 0 1.82-.933 4.619 4.619 0 0 0-1.96.42zm23.609-42.971a8.03 8.03 0 0 0-1.773.933 7 7 0 0 0 1.96-.42 8.372 8.372 0 0 0 1.82-.933 5.16 5.16 0 0 0-2.006.42zm30.887 6.345a3.549 3.549 0 0 0-.886.56 3.975 3.975 0 0 0 1.073-.187 1.4 1.4 0 0 0-.188-.373zm-16.843 9.8a8.374 8.374 0 0 0-1.82.933 7.936 7.936 0 0 0 3.779-1.4 7.068 7.068 0 0 0-1.96.465zm-8.445 25.615a8.372 8.372 0 0 0-1.82.933 6.661 6.661 0 0 0 1.96-.42 8.028 8.028 0 0 0 1.773-.933 7.445 7.445 0 0 0-1.913.42zM138.8 298.16a8.027 8.027 0 0 0-1.773.933 6.662 6.662 0 0 0 1.96-.42 8.03 8.03 0 0 0 1.773-.933 5.673 5.673 0 0 0-1.96.42zm-42.97 1.12a8.027 8.027 0 0 0-1.773.933 7.936 7.936 0 0 0 3.779-1.4 9.656 9.656 0 0 0-2.006.467zm32.287 17.17a8.371 8.371 0 0 0-1.82.933 6.662 6.662 0 0 0 1.96-.42 7.11 7.11 0 0 0 1.773-.933 7.446 7.446 0 0 0-1.913.42zm-17.357-50.623l-.14-.327a2.564 2.564 0 0 0-.42.327c.047.047.047.14.093.187a8.028 8.028 0 0 0 .933 1.773 9.23 9.23 0 0 0-.466-1.96zM94.43 317.8a8.371 8.371 0 0 0-.933-1.82 7.936 7.936 0 0 0 1.4 3.779 7.483 7.483 0 0 0-.467-1.959zm23.515-10.265a8.028 8.028 0 0 0-.933-1.773 7.936 7.936 0 0 0 1.4 3.779 6.264 6.264 0 0 0-.466-2.003zm-8.3-22.069a7.11 7.11 0 0 0-.933-1.773 7.936 7.936 0 0 0 1.4 3.779 9.655 9.655 0 0 0-.467-2.006zm28.927 37.559a8.371 8.371 0 0 0-.933-1.82 6.663 6.663 0 0 0 .42 1.96 7.109 7.109 0 0 0 .933 1.773 7.447 7.447 0 0 0-.42-1.913zm-10.731-50.156a8.371 8.371 0 0 0-.933-1.82 7.936 7.936 0 0 0 1.4 3.779 5.734 5.734 0 0 0-.471-1.956zm-25.1 36.439a6.85 6.85 0 0 0-1.96-.607 7.831 7.831 0 0 0 3.686 1.68 5.969 5.969 0 0 0-1.726-1.073zm23.282 21.322a6.677 6.677 0 0 0 .7.513h1.073a7.732 7.732 0 0 0-1.779-.51zm-38.4-3.779a6.85 6.85 0 0 0-1.96-.607 8.222 8.222 0 0 0 1.726 1.073 7.028 7.028 0 0 0 1.913.607 7.906 7.906 0 0 0-1.684-1.07zm39.612-23a7.028 7.028 0 0 0-1.913-.607 7.179 7.179 0 0 0 1.726 1.073 6.85 6.85 0 0 0 1.96.607 8.55 8.55 0 0 0-1.773-1.073zm-4.246-21.7a6.85 6.85 0 0 0-1.96-.607 8.222 8.222 0 0 0 1.726 1.073 6.85 6.85 0 0 0 1.96.607 8.222 8.222 0 0 0-1.726-1.073zm-25.479 6.024a6.85 6.85 0 0 0-.607 1.96 8.224 8.224 0 0 0 1.073-1.726 7.028 7.028 0 0 0 .607-1.913 6.885 6.885 0 0 0-1.073 1.68zm20.529 35.6a6.85 6.85 0 0 0-.607 1.96 7.906 7.906 0 0 0 1.073-1.68 6.85 6.85 0 0 0 .607-1.96 7.906 7.906 0 0 0-1.073 1.68zm12.6-31.4a6.85 6.85 0 0 0-.607 1.96 8.223 8.223 0 0 0 1.073-1.726 6.85 6.85 0 0 0 .607-1.96 5.97 5.97 0 0 0-1.073 1.726zM102.5 325.594a7.338 7.338 0 0 0-.607 1.96 7.178 7.178 0 0 0 1.073-1.726 6.85 6.85 0 0 0 .607-1.96 11.6 11.6 0 0 0-1.073 1.726zm-14.182-16.236a6.851 6.851 0 0 0-.607 1.96 7.831 7.831 0 0 0 1.68-3.686 5.969 5.969 0 0 0-1.073 1.726zm20.016-10.544a7.027 7.027 0 0 0-.607 1.913A8.223 8.223 0 0 0 108.8 299a6.85 6.85 0 0 0 .607-1.96 5.821 5.821 0 0 0-1.073 1.773zm8.025-25.148a7.027 7.027 0 0 0-.607 1.913 8.222 8.222 0 0 0 1.073-1.726 6.85 6.85 0 0 0 .607-1.96 9.974 9.974 0 0 0-1.073 1.773z" class="cls-2" transform="translate(-69.327 -220.644)"/>
            <path id="Path_3249" d="M194.157 290.453c1.26 2.1 2.659 4.152 3.966 6.205-.513-1.493-1.073-2.939-1.633-4.386v-.047h.047a32.927 32.927 0 0 1 2.286 5.459 48.982 48.982 0 0 1 2.659 4.852 20.387 20.387 0 0 1 1.773 6.392 16.568 16.568 0 0 1-.933 6.579 43.588 43.588 0 0 1-3.313 7c-.187.28-.56 0-.42-.28 1.866-3.966 3.919-8.118 3.733-12.6s-2.24-8.538-4.292-12.364a66.359 66.359 0 0 0-3.966-6.812c-.093.002.047-.092.093.002z" class="cls-5" transform="translate(-130.422 -233.932)"/>
            <path id="Path_3250" d="M237.206 396.147l-1.306 7.418h41.245a5.121 5.121 0 0 0 4.806-4.059l.607-3.406h-45.352v.047z" class="cls-4" transform="translate(-152.756 -290.31)"/>
            <path id="Path_3251" d="M228.629 399.606l.607-3.406h8.118l-.607 3.406a5.069 5.069 0 0 1-4.759 4.059 3.372 3.372 0 0 1-2.659-1.166 3.635 3.635 0 0 1-.7-2.893z" class="cls-3" transform="translate(-148.844 -290.363)"/>
            <path id="Path_3252" d="M255.184 277.859L244.5 338.327h37.232a5.069 5.069 0 0 0 4.759-4.059l10.685-60.468h-37.232a4.683 4.683 0 0 0-3.079 1.166 5.1 5.1 0 0 0-1.681 2.893z" class="cls-4" transform="translate(-157.343 -225.071)"/>
            <path id="Path_3253" d="M275.146 273.8L273 286.024h45.3l1.446-8.165a3.326 3.326 0 0 0-3.313-4.059z" class="cls-3" transform="translate(-172.546 -225.071)"/>
            <path id="Path_3254" d="M265.746 277.859l-1.446 9.1h8.118l1.446-9.1a3.326 3.326 0 0 0-3.313-4.059 4.683 4.683 0 0 0-3.079 1.166 4.923 4.923 0 0 0-1.726 2.893z" class="cls-4" transform="translate(-167.905 -225.071)"/>
            <path id="Path_3255" d="M318.332 324c1.493 4.339 5.879 9.938 5.925 13.344a3.882 3.882 0 0 1-2.613 3.873s3.173 2.006 2.706 5.132c-.233 1.586-2.986 2.613-2.986 2.613a4.617 4.617 0 0 1 1.866 4.479c-.467 2.193-3.173 2.846-3.173 2.846s1.586 2.753.42 4.806c-2.38 4.152-21.369 2.146-23.515-5.132-1.026-3.406 3.593-2.659 3.593-2.659s-6.345-2.659-6.065-6.579c.327-3.919 6.252-2.613 6.252-2.613s-6.159-2.613-5.412-6.672c.793-4.2 6.485-1.866 6.485-1.866s-3.919-3.313-2.659-6.252c2.1-4.852 9.378 2.333 13.671 1.773l3.033-6.625z" class="cls-10" transform="translate(-184.004 -251.849)"/>
            <path id="Path_3256" d="M345.252 320.108c-1.073-4.2 4.479-8.678 4.013-12.831-.607-5.646-7.419-.886-9.611 7l-.654 6.391z" class="cls-10" transform="translate(-207.752 -241.612)"/>
            <path id="Path_3257" d="M326.3 389.394c.047 0 .047 0 .047.047s0 .047-.047.047a33.219 33.219 0 0 1-19.409-3.219.2.2 0 0 1 .14-.373 65.969 65.969 0 0 0 19.269 3.498z" class="cls-11" transform="translate(-190.569 -284.863)"/>
            <path id="Path_3258" d="M328.168 371.68a.07.07 0 0 1 0 .14c-6.579.84-14.79-.513-20.949-4.852-.187-.14-.233-.513 0-.327 4.34 2.567 14.791 4.899 20.949 5.039z" class="cls-11" transform="translate(-190.715 -274.568)"/>
            <path id="Path_3259" d="M309.3 347.792c6.065 3.919 12.784 5.506 19.923 6.112a.07.07 0 0 1 0 .14c-3.593.653-8.072-.233-11.524-1.213a19.089 19.089 0 0 1-8.538-4.852c-.097-.048-.004-.234.139-.187z" class="cls-11" transform="translate(-191.813 -264.536)"/>
            <path id="Path_3260" d="M156.1 241.456c.093 1.166 4.292 9.191 9.378 9.7 1.68.187 3.033-8.865 3.033-8.865l.28-.653 3.546-9.051-9.891-8.725L161 222.7s-.793 2.519-1.773 5.692l-.14.42c-.047.14-.14.327-.187.513-.14.467-.28.933-.42 1.446-.093.373-.233.7-.327 1.12a10.889 10.889 0 0 1-.327 1.166 67.574 67.574 0 0 0-1.726 8.399z" class="cls-10" transform="translate(-110.188 -197.813)"/>
            <path id="Path_3261" d="M162.7 228.392a19.526 19.526 0 0 0 9.565 13.251l3.546-9.051-9.891-8.725-1.446-1.166c.046-.001-.794 2.518-1.774 5.691z" class="cls-11" transform="translate(-113.709 -197.813)"/>
            <path id="Path_3262" d="M190.014 194.424c-2.24 16.89-12.6 17.45-16.237 16.937-3.313-.42-14.51-2.38-14-19.363s9.051-21.322 16.657-20.669 15.82 6.205 13.58 23.095z" class="cls-10" transform="translate(-112.142 -170.377)"/>
            <path id="Path_3263" d="M216.923 214.6a7.444 7.444 0 0 1-1.073-.467 1.945 1.945 0 0 1-1.026-.7.565.565 0 0 1 .14-.7 1.515 1.515 0 0 1 1.54-.047 2.378 2.378 0 0 1 1.213 1.026.633.633 0 0 1-.327.84.535.535 0 0 1-.467.048z" class="cls-7" transform="translate(-141.477 -192.37)"/>
            <path id="Path_3264" d="M194.326 208.978h1.166a2.183 2.183 0 0 0 1.213-.233.577.577 0 0 0 .14-.7 1.516 1.516 0 0 0-1.4-.653 2.124 2.124 0 0 0-1.493.467.662.662 0 0 0-.047.933.838.838 0 0 0 .421.186z" class="cls-7" transform="translate(-130.264 -189.644)"/>
            <path id="Path_3265" d="M196.733 218.685c0-.047-.093.047-.093.093-.187 1.166-.56 2.426-1.68 2.613-.047 0-.047.047 0 .047 1.306.094 1.82-1.633 1.773-2.753z" class="cls-7" transform="translate(-130.898 -195.665)"/>
            <path id="Path_3266" d="M194.978 215.753c-1.82-.467-2.613 3.173-.933 3.639s2.473-3.266.933-3.639z" class="cls-7" transform="translate(-129.936 -194.085)"/>
            <path id="Path_3267" d="M192.907 215.238a2.64 2.64 0 0 1-1.166.373c-.42-.047-.7-.513-.933-.933 0-.047-.047 0-.093.047a1.327 1.327 0 0 0 .653 1.726 1.437 1.437 0 0 0 1.633-.933c.139-.14.046-.327-.094-.28z" class="cls-7" transform="translate(-128.612 -193.524)"/>
            <path id="Path_3268" d="M212.891 220.989c0-.047.093.093.047.14-.28 1.12-.42 2.473.513 3.079.047 0 0 .093 0 .047-1.213-.466-1.027-2.239-.56-3.266z" class="cls-7" transform="translate(-140.291 -196.896)"/>
            <path id="Path_3269" d="M214.31 218.988c1.866.28 1.166 3.966-.56 3.686s-1.027-3.92.56-3.686z" class="cls-7" transform="translate(-140.403 -195.827)"/>
            <path id="Path_3270" d="M217.333 219.771c.233.233.467.653.84.747.327.093.747-.233 1.073-.56.047-.047.047 0 .047.047-.093.7-.467 1.4-1.166 1.4s-.98-.7-1.026-1.4c-.001-.14.139-.327.232-.234z" class="cls-7" transform="translate(-142.727 -196.237)"/>
            <path id="Path_3271" d="M194.955 237.83c.513.793 1.073 1.866 2.053 2.146a7.015 7.015 0 0 0 3.266-.093s.14 0 .14.093v.14a3.9 3.9 0 0 1-4.059.84 3.125 3.125 0 0 1-1.773-3.033c0-.186.233-.186.373-.093z" class="cls-2" transform="translate(-130.707 -205.851)"/>
            <path id="Path_3272" d="M159.649 191.168c3.919.793 5.086-5.366 5.086-5.366s4.526.42 6.205-6.625a11.093 11.093 0 0 0 7.139 6.765c1.213.42-2.38-3.686-2.38-3.686s4.2 5.6 14 5.692c.7 0 2.006-10.311-4.759-15.164a17.318 17.318 0 0 0-20.156-.373s-5.319 1.866-6.905 6.905c-1.636 5.04.231 11.572 1.77 11.852z" class="cls-7" transform="translate(-110.798 -169.36)"/>
            <path id="Path_3273" d="M185.481 219.933a5.643 5.643 0 1 1 3.033-10.871 5.6 5.6 0 0 1 4.106 5.552 5.656 5.656 0 0 1-5.739 5.506 4.817 4.817 0 0 1-1.4-.187zm2.846-10.125a4.89 4.89 0 1 0 3.406 6.019 5.066 5.066 0 0 0 .187-1.166 4.971 4.971 0 0 0-3.593-4.852z" class="cls-2" transform="translate(-123.659 -190.427)"/>
            <path id="Path_3274" d="M214.282 224.057c-2.1-.56-3.359-3.219-2.893-6.159a6.657 6.657 0 0 1 1.773-3.733 3.5 3.5 0 0 1 5.925.933 6.885 6.885 0 0 1 .56 4.106c-.467 3.079-2.753 5.272-5.039 4.946a.674.674 0 0 0-.326-.093zm2.286-10.265a.592.592 0 0 0-.28-.047 3.04 3.04 0 0 0-2.566.98 6.133 6.133 0 0 0-1.586 3.313c-.42 2.659.747 5.086 2.659 5.366s3.733-1.633 4.152-4.292a5.789 5.789 0 0 0-.513-3.639 2.8 2.8 0 0 0-1.866-1.68z" class="cls-2" transform="translate(-139.629 -192.591)"/>
            <path id="Path_3275" d="M204.573 221.15l-.373-.653c.98-.56 3.079-1.213 4.2.42l-.607.42c-1.074-1.493-3.173-.28-3.22-.187z" class="cls-2" transform="translate(-135.846 -196.31)"/>
            <path id="Path_3276" d="M150.507 213.519l-.607-.42c.187-.28 2.1-2.753 3.779-2.8 1.586 0 11.431 2.519 11.851 2.613l-.187.747c-2.8-.7-10.451-2.613-11.664-2.566-1.12 0-2.659 1.773-3.172 2.426z" class="cls-2" transform="translate(-106.881 -191.199)"/>
            <path id="Path_3277" d="M157.564 213.152s-2.473-5.972-5.132-5.226c-2.659.793-1.586 8.912.933 10.545a2.884 2.884 0 0 0 4.013-.56l.093-.093z" class="cls-10" transform="translate(-107.406 -189.898)"/>
            <path id="Path_3278" d="M155.047 213c-.047.047-.047.047-.047.093 1.773 1.213 2.38 3.219 2.659 5.272a1.571 1.571 0 0 0-2.193-.933c-.047 0-.047.047 0 .093l.047.047a1.794 1.794 0 0 1 1.773 1.026 7.469 7.469 0 0 1 .56 1.726.191.191 0 0 0 .373-.047v-.047c.56-2.518-.606-6.39-3.172-7.23z" class="cls-11" transform="translate(-109.601 -192.639)"/>
            <path id="Path_3279" d="M165.33 264.233l-2.38 7.792-10.171-8.725-2.38 3.266s10.4 14.324 10.4 13.671l2.566-6.765 4.852 4.106-1.306-11.291z" class="cls-5" transform="translate(-107.147 -219.47)"/>
            <path id="Path_3280" d="M167.643 275.437c-.28-1.866-.513-3.733-.886-5.6 0-.047-.14-.093-.14 0-.233 1.82.886 8.912 1.026 10.638-.187-.187-4.479-3.593-4.526-3.546a67.7 67.7 0 0 0-2.566 6.439c-1.633-2.286-8.585-11.2-10.5-13.344 0-.047-.047-.047-.093 0-.047 0-.047.047 0 .093 1.493 2.426 10.5 14.23 10.591 14.184a65.648 65.648 0 0 0 2.659-7.139c.747.747 5.086 4.666 5.086 4.386a55.516 55.516 0 0 0-.651-6.111z" class="cls-12" transform="translate(-106.894 -222.929)"/>
            <path id="Path_3281" d="M102.16 284.49c-3.919 16.983-15.117 35.973-22.16 41.571-4.292 3.406-18.1 3.406-18.71-5.506s26.455-36.859 30.42-42.318c3.965-5.411 13.996-9.097 10.45 6.253z" class="cls-8" transform="translate(-59.608 -224.937)"/>
            <path id="Path_3282" d="M102.16 284.45c-3.919 16.983-15.117 36.019-22.16 41.618-4.292 3.406-18.1 3.406-18.71-5.506s26.5-36.906 30.467-42.365c3.918-5.458 13.949-9.144 10.403 6.253z" class="cls-12" transform="translate(-59.608 -224.897)"/>
            <path id="Path_3283" d="M71.051 329.191a8.029 8.029 0 0 0-1.773.933 7 7 0 0 0 1.96-.42 8.371 8.371 0 0 0 1.82-.933 4.833 4.833 0 0 0-2.007.42zM94.66 286.22a8.029 8.029 0 0 0-1.773.933 7 7 0 0 0 1.96-.42 8.371 8.371 0 0 0 1.82-.933 5.16 5.16 0 0 0-2.006.42zm-8.538 23.888a8.027 8.027 0 0 0-1.773.933 7.936 7.936 0 0 0 3.779-1.4 10.4 10.4 0 0 0-2.006.467zM79.4 302.55a6.72 6.72 0 0 0-.933-1.82 6.661 6.661 0 0 0 .42 1.96 8.372 8.372 0 0 0 .933 1.82 6.662 6.662 0 0 0-.42-1.96zm-11.008 16.89a8.372 8.372 0 0 0-.933-1.82 7.936 7.936 0 0 0 1.4 3.779 9.23 9.23 0 0 0-.467-1.959zm15.4 7.372a6 6 0 0 0 .327 1.586l.373-.42a9.646 9.646 0 0 0-.703-1.166zm16.14-30.512a7.109 7.109 0 0 0-.932-1.775 7 7 0 0 0 .42 1.96 7.847 7.847 0 0 0 .747 1.54.865.865 0 0 0 .093-.327 6.8 6.8 0 0 0-.327-1.4zm-25.148 14.23a6.85 6.85 0 0 0-1.96-.607 8.221 8.221 0 0 0 1.726 1.073 6.849 6.849 0 0 0 1.96.607 6.667 6.667 0 0 0-1.726-1.075zM87.8 299a6.851 6.851 0 0 0-.607 1.96 8.223 8.223 0 0 0 1.073-1.726 7.028 7.028 0 0 0 .607-1.913A5.736 5.736 0 0 0 87.8 299zm-9.19 21.186a6.851 6.851 0 0 0-.607 1.96 7.831 7.831 0 0 0 1.68-3.686 5.97 5.97 0 0 0-1.073 1.726zm-16.983 5.925c-.093.28-.233.513-.327.793v.187c0 .187.047.373.047.513a11.869 11.869 0 0 0 .747-1.306 6.851 6.851 0 0 0 .607-1.96 6.435 6.435 0 0 0-1.074 1.774z" class="cls-2" transform="translate(-59.619 -231.472)"/>
            <path id="Path_3284" d="M75.787 336.631a18.769 18.769 0 0 0 5.6.047 14.694 14.694 0 0 0 5.179-1.866c3.359-1.96 5.646-5.226 7.652-8.445 2.193-3.546 4.246-7.185 6.205-10.871 1.913-3.686 3.686-7.512 5.412-11.291.886-1.913 1.633-3.873 2.473-5.832s1.586-3.873 2.286-5.832c.187-.513.373-.98.513-1.493l.047-.047.047.047c-.653 2.006-1.26 4.059-1.913 6.112-.093.28-.187.513-.28.793.7-1.54 1.446-3.033 2.193-4.526.047-.093.187 0 .14.093l-2.1 4.619c-.373.747-.7 1.493-1.073 2.24-.327.933-.7 1.866-1.073 2.8-1.586 3.966-3.359 7.838-5.272 11.664-1.96 3.779-4.013 7.512-6.252 11.151-2.053 3.359-4.246 6.812-7.558 9.051a14.352 14.352 0 0 1-10.824 2.193 10.675 10.675 0 0 1-1.306-.373c-.047 0-.047-.093-.047-.14-.096-.048-.049-.094-.049-.094z" class="cls-12" transform="translate(-67.34 -234.246)"/>
            <path id="Path_3285" d="M90 215.1c2.8-6.859 7.372-16.237 10.451-17.683 3.219-1.493 14.79-6.3 17.823-6.532s13.857 2.893 15.77 4.806c1.54 1.54-1.12 5.179-7.279 4.666-5.739-.513-7.092-.886-8.772-.653s-6.625 4.246-6.159 6.672c.28 1.446 3.593 3.919 6.205 3.453s4.152-2.986 7.372-4.479 7.838 0 7.745 1.306-1.773 1.54-5.272 5.179c-2.24 2.38-3.873 7.045-8.585 10.918a78.876 78.876 0 0 0-7.045 7.512z" class="cls-10" transform="translate(-74.928 -180.836)"/>
            <path id="Path_3286" d="M112.3 195.063c3.173-2.986 10.591-7.885 16.89-8.585 4.246-.513 15.863 9.425 14.837 11.851s-3.313 1.866-6.579.607c-1.166-.42-7.092-4.479-8.538-3.406-2.1 1.54-5.832 7.7-5.832 7.7z" class="cls-10" transform="translate(-86.824 -178.481)"/>
            <path id="Path_3287" d="M171.59 200.891c-.933-3.126-4.2-5.506-7.465-7.605-.047-.047-.093.047-.047.093.84.513 6.019 4.712 7.465 7.558 0 .047.047 0 .047-.046z" class="cls-11" transform="translate(-114.433 -182.116)"/>
            <path id="Path_3288" d="M112.3 195.065c3.173-2.986 10.591-7.885 16.89-8.585 4.246-.513 12.644 10.5 11.618 12.971s-4.386 1.82-7.652-.373c-1.073-.7-4.246-4.479-5.739-3.406-2.1 1.54-7.232 5.412-7.232 5.412z" class="cls-10" transform="translate(-86.824 -178.483)"/>
            <path id="Path_3289" d="M135.6 198.5c.513-.42.7-.607 1.213-1.073s1.026-.886 1.586-1.306a5.677 5.677 0 0 1 1.493-.933 2.584 2.584 0 0 1 1.68.093 8.953 8.953 0 0 1 3.033 2.426c1.026.98 3.173 2.706 5.132 2.986a4.529 4.529 0 0 0 1.586 0 2.44 2.44 0 0 0 1.073-.467c1.166-1.166.56-3.033-.187-4.432a24.749 24.749 0 0 0-5.832-6.625c-.56-.467-1.12-.933-1.68-1.353a6.462 6.462 0 0 0-2.1-1.26c-1.306-.327-3.779.42-4.572.653-.047 0-.093-.093 0-.093.933-.28 3.359-1.4 5.412-.747a7.078 7.078 0 0 1 2.006 1.306c.607.467 1.306 1.026 1.913 1.586a29.351 29.351 0 0 1 3.406 3.406 12.083 12.083 0 0 1 2.473 3.966 3.816 3.816 0 0 1-.747 3.826 3.312 3.312 0 0 1-2.706.653 11.053 11.053 0 0 1-1.68-.42 24.564 24.564 0 0 1-3.359-2.006c-1.026-.747-1.866-1.773-2.939-2.426a2.252 2.252 0 0 0-1.726-.327 5.188 5.188 0 0 0-1.586.84 18.894 18.894 0 0 0-2.8 1.96c-.141.094-.281-.046-.092-.233z" class="cls-11" transform="translate(-99.203 -178.326)"/>
            <path id="Path_3290" d="M107.1 191.738c1.26-1.493 4.432-8.072 6.345-9.845s9.891-7.558 12.691-6.532c3.5 1.306-1.913 6.859-4.479 9-2.566 2.193-3.406 6.812-3.406 6.812z" class="cls-10" transform="translate(-84.05 -172.497)"/>
            <path id="Path_3291" d="M138.245 186.854a28.27 28.27 0 0 0-2.519 2.193 25.376 25.376 0 0 0-2.286 2.193 8.877 8.877 0 0 0-1.446 2.8 7.843 7.843 0 0 0-.42 1.493c-.14.513-.233 1.12-.373 1.633 0 .047.093.093.093.047a22.049 22.049 0 0 1 1.166-2.893 11.173 11.173 0 0 1 1.68-2.753c1.306-1.68 2.986-3.033 4.339-4.666-.094-.047-.187-.14-.234-.047z" class="cls-11" transform="translate(-96.906 -178.671)"/>
            <path id="Path_3292" d="M147.04 225.52a4.582 4.582 0 0 0 3.266-1.12l2.519-1.96a10.561 10.561 0 0 1 2.706-1.586 12.811 12.811 0 0 1 3.5-.607 6.388 6.388 0 0 1 3.359.513c.84.42 1.773 1.306 1.306 2.333a3.52 3.52 0 0 1-.98 1.213 7.972 7.972 0 0 1-1.213.98c-.84.607-1.726 1.166-2.519 1.82a15.55 15.55 0 0 0-2.519 3.313c-.28.42-2.146 3.359-2.846 4.339a24.138 24.138 0 0 1-1.96 2.38 21.726 21.726 0 0 1-2.286 1.82 16.679 16.679 0 0 0-2.38 2.1c-.047.047-.093 0-.047-.047.886-1.633 2.519-2.706 3.966-3.826 1.913-1.4 6.112-8.632 6.859-9.611 1.26-1.633 3.173-2.426 4.619-3.826.327-.327.84-.793.84-1.306a1.465 1.465 0 0 0-.886-1.12 5.7 5.7 0 0 0-3.313-.373 13.676 13.676 0 0 0-3.359.56 10.666 10.666 0 0 0-2.706 1.4c-.933.653-1.866 1.306-2.846 1.913a4.594 4.594 0 0 1-3.219.7c.046.045.092-.002.139-.002z" class="cls-11" transform="translate(-105.28 -196.481)"/>
            <path id="Path_3293" d="M177.886 198.066c-.747-.373-1.493-.793-2.286-1.12v-.046c.933.373 1.866.653 2.753 1.026a2.78 2.78 0 0 1 1.773 1.446 2.249 2.249 0 0 1-.42 2.1 5.273 5.273 0 0 1-2.006 1.353c-.047 0-.093-.047-.047-.047 1.12-.653 2.8-1.913 1.913-3.406a3.528 3.528 0 0 0-1.68-1.306z" class="cls-11" transform="translate(-120.59 -184.051)"/>
            <path id="Path_3294" d="M172.547 212.251a4.755 4.755 0 0 0 2.566-.42 1.764 1.764 0 0 0 .933-1.4.89.89 0 0 0-.093-.607c-.047-.047.047-.093.047-.047.047.093.093.233.14.327a.592.592 0 0 1 .047.28 2.66 2.66 0 0 1-.047.607 2.487 2.487 0 0 1-.747 1.073 3.326 3.326 0 0 1-2.893.28s0-.093.047-.093z" class="cls-11" transform="translate(-118.936 -190.91)"/>
            <path id="Path_3295" d="M95.387 257.307c-1.866 6.812-16.237 43.111-20.2 48.244s-13.671 6.205-16.377-3.033S70.192 249 73.178 242.05c1.633-3.826 22.909 12.831 22.209 15.257z" class="cls-10" transform="translate(-58.106 -207.832)"/>
            <path id="Path_3296" d="M98.1 266.63L69.969 250.3S57.932 291.592 57.7 304.329c-.14 9.145 10.778 15.957 19.456 3.593S98.1 266.63 98.1 266.63z" class="cls-5" transform="translate(-57.697 -212.536)"/>
            <path id="Path_3297" d="M72.458 251.4a6.251 6.251 0 0 0-1.026 1.68 6.851 6.851 0 0 0-.607 1.96 8.222 8.222 0 0 0 1.073-1.726 6.926 6.926 0 0 0 .56-1.913zm-9.1 39.379a6.851 6.851 0 0 0-.607 1.96 8.223 8.223 0 0 0 1.073-1.726 6.85 6.85 0 0 0 .607-1.96 8.224 8.224 0 0 0-1.072 1.726zm-2.053 16.983a6.85 6.85 0 0 0-.607 1.96A8.223 8.223 0 0 0 61.773 308a6.851 6.851 0 0 0 .607-1.96 5.612 5.612 0 0 0-1.073 1.726zm16.983-5.925a6.85 6.85 0 0 0-.607 1.96 7.831 7.831 0 0 0 1.68-3.686 5.969 5.969 0 0 0-1.073 1.726zm9.425-41.572v.14l.093-.093zm-.232 20.435a6.851 6.851 0 0 0-.607 1.96 8.223 8.223 0 0 0 1.073-1.726 7.028 7.028 0 0 0 .607-1.913 6.1 6.1 0 0 0-1.073 1.68zm-12.971-4.666a7.028 7.028 0 0 0-.607 1.913 7.831 7.831 0 0 0 1.68-3.686 7.819 7.819 0 0 0-1.073 1.773zm9.611-4.852a6.85 6.85 0 0 0-1.96-.607 7.179 7.179 0 0 0 1.726 1.073 8.723 8.723 0 0 0 1.96.607 5.114 5.114 0 0 0-1.726-1.073zm-9.658 21a6.85 6.85 0 0 0-1.96-.607 8.223 8.223 0 0 0 1.726 1.073 6.851 6.851 0 0 0 1.96.607 6.669 6.669 0 0 0-1.725-1.077zm-4.2-25.988a6.849 6.849 0 0 0-1.96-.607 7.831 7.831 0 0 0 3.686 1.68 10.739 10.739 0 0 0-1.726-1.073zm-2.24 34.853a8.371 8.371 0 0 0-.933-1.82 7.936 7.936 0 0 0 1.4 3.779 6.29 6.29 0 0 0-.467-1.96zm11.06-16.847a6.72 6.72 0 0 0-.933-1.82 6.662 6.662 0 0 0 .42 1.96 8.371 8.371 0 0 0 .933 1.82 6.661 6.661 0 0 0-.42-1.96zm6.719 7.605a8.027 8.027 0 0 0-1.773.933 7.936 7.936 0 0 0 3.779-1.4 6.264 6.264 0 0 0-2.006.467zM67 281.914a8.03 8.03 0 0 0-1.773.933 6.662 6.662 0 0 0 1.96-.42 8.027 8.027 0 0 0 1.773-.933 7.369 7.369 0 0 0-1.96.42zm11.058-20.669a8.371 8.371 0 0 0-1.82.933 6.661 6.661 0 0 0 1.96-.42 8.371 8.371 0 0 0 1.82-.933 6.661 6.661 0 0 0-1.962.42zm16.282 6.625a8.029 8.029 0 0 0-1.773.933 7 7 0 0 0 1.96-.42 8.374 8.374 0 0 0 1.82-.933 5.16 5.16 0 0 0-2.007.42zm-23.609 42.925a8.03 8.03 0 0 0-1.773.933 7 7 0 0 0 1.96-.42 8.372 8.372 0 0 0 1.82-.933 6.974 6.974 0 0 0-2.006.42z" class="cls-2" transform="translate(-59.299 -213.122)"/>
            <path id="Path_3298" d="M107.444 278.874c-4.246-2.286-21.369-12.271-24.915-14.7-.233-.187-.187-.373.093-.233 12.971 6.532 20.856 12.271 24.915 14.744.094.096 0 .236-.093.189z" class="cls-12" transform="translate(-70.864 -219.788)"/>
            <path id="Path_3299" d="M114.748 309.7c2.986-5.6 5.832-11.2 8.4-16.983.7-1.633 1.4-3.219 2.1-4.852.653-1.586 1.306-3.126 1.913-4.712-.607-.42-3.173-2.1-3.453-2.38-.093-.093 0-.233.093-.187.327.14 3.359 1.866 3.966 2.333.093.047-1.166 3.173-1.773 4.666s-1.166 2.986-1.82 4.432c-1.213 2.893-2.519 5.785-3.919 8.632-1.493 3.079-3.033 6.112-4.666 9.1-1.307 2.521-4.713 7.14-.841-.049z" class="cls-5" transform="translate(-87.173 -228.688)"/>
        </g>
        <g id="freepik--Pencil--inject-2" transform="translate(148.373 213.49)">
            <path id="Path_3300" fill="#e08b70" d="M360.5 434.017s5.506.746 5.739-3.079c.187-3.826-5.366-3.639-5.366-3.639z" transform="translate(-315.336 -425.153)"/>
            <path id="Rectangle_1346" fill="#fa3a37" d="M0 0H6.719V39.192H0z" transform="rotate(-86.921 6.697 .023)"/>
            <path id="Rectangle_1347" d="M0 0H7.838V1.54H0z" class="cls-15" transform="rotate(-86.921 26.99 -18.568)"/>
            <path id="Rectangle_1348" d="M0 0H7.838V1.54H0z" class="cls-15" transform="rotate(-86.921 26.022 -17.71)"/>
            <path id="Path_3301" d="M270.379 422.8l-4.946 2.286-1.633.747 1.54.933 4.712 2.8 1.026-.607-.933-.7 1.026-.607-.933-.7 1.026-.607s-.933-.7-.933-.747l1.026-.607-.933-.746 1.026-.607z" class="cls-10" transform="translate(-263.753 -422.754)"/>
            <path id="Path_3302" d="M265.38 427.7l-1.68.7 1.586.933z" class="cls-15" transform="translate(-263.7 -425.368)"/>
        </g>
        <g id="freepik--Calculator--inject-2" transform="translate(75.774 209.944)">
            <path id="Path_3303" d="M154.757 415.1l5.692 14.837H108.1l6.252-14.79z" class="cls-16" transform="translate(-108.1 -415.1)"/>
            <path id="Path_3304" d="M155.13 417.5l5.319 13.717v2.519H108.1v-2.519l5.832-13.717z" class="cls-16" transform="translate(-108.1 -416.38)"/>
            <path id="Path_3305" d="M154.757 415.1l5.692 14.837H108.1l6.252-14.79z" class="cls-9" transform="translate(-108.1 -415.1)"/>
            <path id="Path_3306" d="M143.972 438.4l-.327 2.846H137.3l.607-2.846z" class="cls-2" transform="translate(-123.676 -427.529)"/>
            <path id="Path_3307" d="M145.145 431.4l-.327 2.846H138.8l.607-2.846z" class="cls-2" transform="translate(-124.476 -423.795)"/>
            <path id="Path_3308" d="M146.319 424.5l-.327 2.846H140.3l.607-2.846z" class="cls-16" transform="translate(-125.276 -420.114)"/>
            <path id="Path_3309" d="M147.492 417.6l-.327 2.846H141.8l.607-2.846z" class="cls-16" transform="translate(-126.077 -416.434)"/>
            <path id="Path_3310" d="M159.292 438.4v2.846H152.9l.28-2.846z" class="cls-15" transform="translate(-131.998 -427.529)"/>
            <path id="Path_3311" d="M159.665 431.4v2.846H153.6l.28-2.846z" class="cls-15" transform="translate(-132.371 -423.795)"/>
            <path id="Path_3312" d="M160.039 424.5v2.846H154.3l.28-2.846z" class="cls-15" transform="translate(-132.744 -420.114)"/>
            <path id="Path_3313" d="M160.512 417.6v2.846H155.1l.28-2.846z" class="cls-2" transform="translate(-133.171 -416.434)"/>
            <path id="Path_3314" d="M174.565 438.4l.327 2.846h-6.345l-.047-2.846z" class="cls-15" transform="translate(-140.319 -427.529)"/>
            <path id="Path_3315" d="M174.139 431.4l.327 2.846h-6.019l-.047-2.846z" class="cls-15" transform="translate(-140.266 -423.795)"/>
            <path id="Path_3316" d="M173.712 424.5l.327 2.846h-5.692l-.047-2.846z" class="cls-15" transform="translate(-140.212 -420.114)"/>
            <path id="Path_3317" d="M173.286 417.6l.327 2.846h-5.366l-.047-2.846z" class="cls-2" transform="translate(-140.159 -416.434)"/>
            <path id="Path_3318" d="M189.465 438.4l.653 2.846h-6.345l-.373-2.846z" class="cls-15" transform="translate(-148.267 -427.529)"/>
            <path id="Path_3319" d="M188.285 431.4l.653 2.846h-6.065l-.373-2.846z" class="cls-15" transform="translate(-147.787 -423.795)"/>
            <path id="Path_3320" d="M187.059 424.5l.653 2.846h-5.739l-.373-2.846z" class="cls-15" transform="translate(-147.307 -420.114)"/>
            <path id="Path_3321" d="M185.832 417.6l.653 2.846h-5.412l-.373-2.846z" class="cls-2" transform="translate(-146.827 -416.434)"/>
            <path id="Path_3322" d="M204.465 438.4l.98 2.8-6.392.047-.653-2.847z" class="cls-15" transform="translate(-156.269 -427.529)"/>
            <path id="Path_3323" d="M202.439 431.4l.98 2.846H197.4l-.7-2.846z" class="cls-15" transform="translate(-155.362 -423.795)"/>
            <path id="Path_3324" d="M200.412 424.5l.98 2.846H195.7l-.7-2.846z" class="cls-2" transform="translate(-154.455 -420.114)"/>
            <path id="Path_3325" d="M198.386 417.6l.98 2.846H194l-.7-2.846z" class="cls-2" transform="translate(-153.548 -416.434)"/>
            <path id="Path_3326" d="M142.72 441.286c-.233 0-.42-.093-.42-.187s.233-.187.513-.187c.233 0 .42.093.42.187a.661.661 0 0 1-.513.187zm.047-.28c-.14 0-.28.047-.28.093s.093.093.233.093.28-.047.28-.093-.093-.092-.233-.092zm1.166.14l-1.54-.56a.046.046 0 0 1-.047-.047.163.163 0 0 1 .093-.047h.047l1.54.56a.046.046 0 0 1 .047.047.163.163 0 0 1-.093.047zm-.233-.373c-.233 0-.42-.093-.42-.187s.233-.187.467-.187c.233 0 .42.093.42.187s-.187.187-.467.187zm.047-.28c-.14 0-.28.047-.28.093s.093.093.233.093.28-.047.28-.093c.047-.047-.093-.093-.233-.093z" class="cls-15" transform="translate(-126.343 -428.596)"/>
            <path id="Path_3327" d="M145.441 428.26c-.467 0-.793-.187-.747-.42a.478.478 0 0 1 .233-.28.142.142 0 0 1 .187 0c.047 0 .047.047 0 .093-.093.047-.14.093-.14.187a.257.257 0 0 0 .14.233 1.442 1.442 0 0 0 .373.093 1.362 1.362 0 0 0 .42-.093c.093-.047.187-.093.187-.233a.242.242 0 0 0-.093-.187c-.047-.047 0-.093.047-.093a.142.142 0 0 1 .187 0 .333.333 0 0 1 .14.28c-.047.233-.467.42-.934.42z" class="cls-15" transform="translate(-127.618 -421.728)"/>
            <path id="Path_3328" d="M146.525 426.567h-1.353c-.093 0-.14-.047-.093-.047l.093-.373c0-.047.047-.047.14-.047a.2.2 0 0 1 .14.047l-.047.327h.42l.047-.28c0-.047.093-.047.14-.047a.47.47 0 0 1 .14.047l-.047.28h.42l.047-.327c0-.047.047-.047.14-.047s.14.047.093.047l-.047.373a.624.624 0 0 1-.233.047z" class="cls-15" transform="translate(-127.816 -420.968)"/>
            <path id="Path_3329" d="M146.795 420.66c-.42 0-.747-.187-.7-.42.047-.14.093-.233.233-.28a.142.142 0 0 1 .187 0c.047.047.047.093 0 .093-.093.047-.14.093-.14.187a.257.257 0 0 0 .14.233.793.793 0 0 0 .747 0c.093-.047.187-.093.187-.233a.242.242 0 0 0-.093-.187c-.047-.047 0-.093.047-.093a.142.142 0 0 1 .187 0 .333.333 0 0 1 .14.28 1.177 1.177 0 0 1-.935.42z" class="cls-15" transform="translate(-128.365 -417.674)"/>
            <path id="Path_3330" d="M158.187 440.8l1.493.28a.163.163 0 0 1 .093.047v.047a.28.28 0 0 1-.187.047l-1.306-.28v.327c0 .047-.093.047-.14.047a.2.2 0 0 1-.14-.047l.047-.42.047-.047z" class="cls-2" transform="translate(-134.718 -428.809)"/>
            <path id="Path_3331" d="M159.612 433.9c.327 0 .56.14.56.28s-.28.28-.607.28a.788.788 0 0 1-.467-.14.421.421 0 0 1-.233.047c-.233 0-.42-.093-.373-.187a.449.449 0 0 1 .42-.187.421.421 0 0 1 .233.047.7.7 0 0 1 .467-.14zm0 .14c-.187 0-.327.093-.327.14s.14.14.327.14.327-.093.327-.14a.533.533 0 0 0-.327-.14zm-.747.233a.2.2 0 0 0 .14-.047c0-.047-.047-.047-.14-.047a.2.2 0 0 0-.14.047.361.361 0 0 1 .14.047z" class="cls-2" transform="translate(-134.977 -425.128)"/>
            <path id="Path_3332" d="M159.36 427.56c-.327 0-.56-.14-.56-.28s.233-.28.513-.28h.14a1.587 1.587 0 0 1 .467.047.891.891 0 0 1 .373.14.242.242 0 0 1 .093.187c0 .047-.047.047-.14.047a.2.2 0 0 1-.14-.047.163.163 0 0 0-.047-.093c-.047-.047-.093-.047-.14-.093h-.047a.144.144 0 0 1 .047.093c.001.139-.233.279-.559.279zm0-.14c.187 0 .327-.093.327-.14 0-.093-.14-.14-.28-.14s-.327.093-.327.14.14.14.28.14z" class="cls-2" transform="translate(-135.145 -421.448)"/>
            <path id="Path_3333" d="M160.84 420.613a.2.2 0 0 1-.14-.047v-.373c0-.047.047-.093.14-.093s.14.047.14.093v.373a.2.2 0 0 1-.14.047z" class="cls-15" transform="translate(-136.158 -417.767)"/>
            <path id="Path_3334" d="M174.406 440.7a.2.2 0 0 1 .14.047h.187a.2.2 0 0 1 .14.047c0 .047-.047.047-.14.047h-.187l.047.373a.046.046 0 0 1-.047.047.142.142 0 0 1-.187 0l-1.213-.42h1.12a.149.149 0 0 1 .14-.141zm-.747.233l.653.233v-.233z" class="cls-2" transform="translate(-142.773 -428.756)"/>
            <path id="Path_3335" d="M173.4 433.933a.991.991 0 0 1 .84 0c.14.047.187.14.187.187 0 .093-.047.14-.187.187a.142.142 0 0 1-.187 0c-.047-.047-.047-.093 0-.093l.093-.093a.1.1 0 0 0-.093-.093.607.607 0 0 0-.467 0 .093.093 0 0 0 0 .187c.047.047.047.093 0 .093h-.14l-.653-.047c-.047 0-.047 0-.093-.047v-.42c0-.047.047-.093.14-.093s.14.047.14.093v.28h.233a.163.163 0 0 1-.047-.093c.094.046.141-.001.234-.048z" class="cls-2" transform="translate(-142.559 -425.022)"/>
            <path id="Path_3336" d="M173.473 427c.327 0 .56.14.56.28s-.187.28-.467.28h-.14a1.588 1.588 0 0 1-.467-.047 1.483 1.483 0 0 1-.42-.14.644.644 0 0 1-.14-.187c0-.047.047-.047.14-.093a.2.2 0 0 1 .14.047.1.1 0 0 0 .093.093c.047.047.093.047.187.093h.047a.144.144 0 0 1-.047-.093c-.046-.093.188-.233.514-.233zm0 .14c-.187 0-.28.093-.28.14 0 .093.14.14.327.14s.28-.047.28-.14-.14-.14-.327-.14z" class="cls-2" transform="translate(-142.399 -421.448)"/>
            <path id="Path_3337" d="M173.2 420.513c0 .047-.047.047-.093.047s-.093-.047-.14-.047l-.047-.467c0-.047.047-.047.093-.047a.163.163 0 0 1 .093.047zm-.56-.28c.093 0 .14.047.14.093s-.047.093-.14.093c-.093 0-.14-.047-.14-.093 0-.093.047-.093.14-.093zm.886 0c.093 0 .14.047.14.093s-.047.093-.14.093c-.093 0-.14-.047-.14-.093 0-.093.047-.093.14-.093z" class="cls-15" transform="translate(-142.453 -417.714)"/>
            <path id="Path_3338" d="M188.54 441.1h1.54a.2.2 0 0 1 .14.047c0 .047-.047.047-.14.047h-1.306l.047.047.047.047a.046.046 0 0 1-.047.047.142.142 0 0 1-.187 0l-.233-.14h.093z" class="cls-2" transform="translate(-150.934 -428.969)"/>
            <path id="Path_3339" d="M188.893 433.793a.2.2 0 0 1 .14.047l.093.42a.046.046 0 0 1-.047.047.142.142 0 0 1-.187 0l-.7-.373a.421.421 0 0 0-.233-.047c-.093 0-.14 0-.187.047l-.093.093s.047.093.093.093l.093.047c.047.047.047.047 0 .093a.142.142 0 0 1-.187 0l-.093-.047a.364.364 0 0 1-.187-.187c0-.093.047-.14.14-.233a1.1 1.1 0 0 1 .373-.093 1.115 1.115 0 0 1 .42.093l.42.233-.047-.233c.049.047.096 0 .189 0z" class="cls-2" transform="translate(-150.401 -425.022)"/>
            <path id="Path_3340" d="M186.753 427.04a1.1 1.1 0 0 1 .373-.093 1.362 1.362 0 0 1 .42.093c.14.047.187.14.187.187 0 .093-.047.14-.14.187a.142.142 0 0 1-.187 0c-.047-.047-.047-.047 0-.093a.093.093 0 0 0 0-.187.421.421 0 0 0-.233-.047c-.093 0-.14 0-.187.047l-.093.093c0 .047 0 .047-.047.047a.142.142 0 0 1-.187 0l-.28-.14.047.187c0 .047-.047.047-.14.047a.2.2 0 0 1-.14-.047l-.047-.373c0-.047.047-.047.14-.047h.093l.327.14c.001.046.048.046.094-.001z" class="cls-2" transform="translate(-149.707 -421.394)"/>
            <path id="Path_3341" d="M186.118 420.2l.373.14.327-.14h.14l.047.047a.046.046 0 0 1-.047.047l-.28.14.327.093a.046.046 0 0 1 .047.047v.047h-.14l-.373-.14-.327.14h-.14c-.047-.047-.047-.047 0-.093l.28-.093-.327-.14c-.047 0-.093-.047-.047-.093z" class="cls-15" transform="translate(-149.632 -417.82)"/>
            <path id="Path_3342" d="M206.8 441.193c0-.047.047-.093.187-.093a.356.356 0 0 1 .233.093c0 .047-.047.093-.187.093s-.233-.046-.233-.093z" class="cls-2" transform="translate(-160.749 -428.969)"/>
            <path id="Path_3343" d="M202.719 434.453a2.729 2.729 0 0 1-.607-.093c-.187-.047-.327-.14-.327-.233-.047-.093.047-.187.187-.233a2.342 2.342 0 0 1 .56-.093 2.731 2.731 0 0 1 .607.093c.187.047.327.14.327.233.047.093-.047.187-.187.233a1.01 1.01 0 0 1-.56.093zm-.093-.467a1.292 1.292 0 0 0-.42.047.579.579 0 0 0-.14.093c0 .047.093.093.187.093a1.912 1.912 0 0 0 .84 0c.093-.047.14-.093.093-.093 0-.047-.047-.093-.187-.093s-.233-.047-.373-.047z" class="cls-2" transform="translate(-158.068 -425.075)"/>
            <path id="Path_3344" d="M201.133 427.46c-.093 0-.14-.047-.14-.093l-.093-.373a.1.1 0 0 1 .093-.093c.093 0 .14.047.14.093l.093.373c.047.046.001.093-.093.093zm.42 0c-.093 0-.14-.047-.14-.093l-.093-.373c0-.047.047-.093.14-.093s.14.047.14.093l.093.373c0 .047-.047.093-.14.093z" class="cls-15" transform="translate(-157.602 -421.394)"/>
            <path id="Path_3345" d="M199.153 420.373l.047.187c0 .047-.047.047-.093.047a.47.47 0 0 1-.14-.047l-.047-.187h-.28a.47.47 0 0 1-.14-.047.1.1 0 0 1 .093-.093h.28l-.047-.187c0-.047.047-.047.093-.047a.47.47 0 0 1 .14.047l.047.187h.327a.171.171 0 0 1 .14.047.1.1 0 0 1-.093.093z" class="cls-15" transform="translate(-156.322 -417.714)"/>
            <path id="Path_3346" d="M143.833 433.6c.047 0 .093 0 .093.047l-.047.14c.327.047 1.26.233 1.493.233.047 0 .047 0 .093.047v.047a.046.046 0 0 1-.047.047c-.047 0-.327.14-.467.187a.821.821 0 0 1-.28.047v-.047c0-.047 0-.047.047-.047l.14-.047.093-.047.093-.047.093-.047-1.446-.233h-.047l-.047-.047.047-.187c.096.001.143-.046.189-.046z" class="cls-15" transform="translate(-127.037 -424.968)"/>
            <path id="Path_3347" d="M125.125 417.6l-3.453 12.551H115l4.759-12.551z" class="cls-16" transform="translate(-111.781 -416.434)"/>
            <path id="Path_3348" d="M124.133 429.7h2.333c.14 0 .187.047.187.093s-.14.093-.233.093h-1.96l.047.093v.047c-.047.047-.093.093-.14.093a.308.308 0 0 1-.28-.047l-.187-.233h.14z" class="cls-2" transform="translate(-116.528 -422.888)"/>
            <path id="Path_3349" d="M127.145 427.193c.14 0 .187.047.187.093l-.233.7c0 .047-.047.047-.093.093a.4.4 0 0 1-.327 0l-.84-.607a.865.865 0 0 0-.327-.093 1.027 1.027 0 0 0-.373.047.466.466 0 0 0-.233.187.186.186 0 0 0 .093.187l.093.047c.047.047.047.093-.047.14a.4.4 0 0 1-.327 0l-.093-.047a.285.285 0 0 1-.14-.327.823.823 0 0 1 .42-.373 1.594 1.594 0 0 1 1.306 0l.56.373.14-.42c.001.047.094 0 .234 0z" class="cls-2" transform="translate(-116.834 -421.501)"/>
            <path id="Path_3350" d="M126.306 424.94a1.872 1.872 0 0 1 .7-.14 1.292 1.292 0 0 1 .607.14c.14.047.187.187.187.373a.83.83 0 0 1-.373.327.4.4 0 0 1-.327 0c-.093-.047-.047-.093.047-.14s.187-.093.187-.187 0-.14-.093-.187a.865.865 0 0 0-.327-.093.879.879 0 0 0-.373.093.466.466 0 0 0-.233.187c0 .047-.047.047-.093.093a.4.4 0 0 1-.327 0l-.327-.187-.093.327c0 .047-.14.093-.28.093s-.187-.047-.187-.093l.187-.607c0-.047.14-.093.233-.093h.14l.42.233a1.214 1.214 0 0 1 .325-.139z" class="cls-2" transform="translate(-117.115 -420.274)"/>
            <path id="Path_3351" d="M128.613 421.8c.093 0 .187.047.187.093h.28c.093 0 .187.047.187.093s-.14.093-.233.093h-.327l-.187.607c0 .047-.047.047-.047.093a.3.3 0 0 1-.28 0l-1.493-.747h1.586c.14-.139.234-.232.327-.232zm-1.213.373l.793.373.14-.373z" class="cls-2" transform="translate(-118.022 -418.674)"/>
            <path id="Path_3352" d="M128.266 419.487a1.872 1.872 0 0 1 .7-.14 1.437 1.437 0 0 1 .607.14.241.241 0 0 1 .14.327.533.533 0 0 1-.373.327.3.3 0 0 1-.28 0c-.047-.047-.047-.093.047-.14s.187-.093.187-.187 0-.14-.093-.187a.674.674 0 0 0-.327-.093 1.1 1.1 0 0 0-.373.093c-.093.047-.187.093-.187.187-.047.093 0 .14.093.187.047.047.047.093-.047.14h-.187l-.933-.047a.171.171 0 0 1-.14-.047V420l.187-.607c0-.047.14-.093.233-.093s.187.047.187.093l-.187.467h.373v-.14a4.3 4.3 0 0 0 .373-.233z" class="cls-2" transform="translate(-118.235 -417.34)"/>
        </g>
    </g>
</svg>
