<svg xmlns="http://www.w3.org/2000/svg" width="197" height="196.319" viewBox="0 0 197 196.319">
    <defs>
        <style>
            .cls-1{fill:#fff}.cls-2,.cls-9{fill:#263238}.cls-4{fill:#4f8ff9}.cls-5{fill:#d6e2fc}.cls-7{fill:#ffc727}.cls-8{fill:#ff9480}.cls-9{opacity:.15}.cls-10{fill:#26a69a}.cls-11{fill:#168e80}.cls-13{fill:#dd6a57}.cls-14{fill:#ffc54f}.cls-15{fill:#c8ebfe}.cls-16{fill:#bae5f7}
        </style>
    </defs>
    <g id="Support_maintenance1" transform="translate(-47.5 -49)">
        <g id="Group_11405" transform="translate(47.5 49)">
            <path id="Path_2969" d="M59.106 344.455a1.487 1.487 0 0 1 .73 1.314v.876a1.35 1.35 0 0 1-.73 1.314l-1.606.973 3.017 5.256 1.606-.973a1.4 1.4 0 0 1 1.557.049 3.147 3.147 0 0 0 .779.438 1.546 1.546 0 0 1 .827 1.265v1.849h6.084v-1.849a1.394 1.394 0 0 1 .83-1.267 4.024 4.024 0 0 0 .779-.438 1.4 1.4 0 0 1 1.557-.049l1.606.973 3.017-5.3-1.606-.973a1.487 1.487 0 0 1-.73-1.314v-.876a1.467 1.467 0 0 1 .73-1.363l1.606-.973-3.017-5.256-1.606.973a1.4 1.4 0 0 1-1.557-.049 3.147 3.147 0 0 0-.779-.438 1.4 1.4 0 0 1-.779-1.265V335.5h-6.134v1.849a1.394 1.394 0 0 1-.827 1.265c-.292.195-.535.292-.779.438a1.492 1.492 0 0 1-1.557.049l-1.606-.973-3.018 5.256zm9.149-3.212a4.915 4.915 0 1 1-4.915 4.915 4.965 4.965 0 0 1 4.915-4.915z" class="cls-1" transform="translate(-52.633 -196.072)"/>
            <g id="freepik--Desk--inject-2" transform="translate(0 195.881)">
                <path id="Path_2970" d="M47.5 451.743l24.625-.146 24.625-.049L146 451.5l49.25.049 24.625.049 24.625.146-24.625.049-24.625.049-49.25.1-49.25-.1-24.625-.049z" class="cls-2" transform="translate(-47.5 -451.5)"/>
            </g>
            <g id="freepik--Device--inject-2" transform="translate(3.942 81.516)">
                <path id="Path_3355" fill="#4779cb" d="M0 0h149.4v99.96H0z" transform="translate(19.466)"/>
                <path id="Path_3353" d="M0 0h147.263v97.527H0z" class="cls-4" transform="translate(20.537 1.217)"/>
                <path id="Path_3354" d="M0 0h188.337v6.862H0z" class="cls-4" transform="translate(0 107.455)"/>
                <path id="Path_2971" d="M55.6 429.395l19.466-7.495h149.4l19.466 7.495z" class="cls-4" transform="translate(-55.6 -321.94)"/>
                <path id="Path_2972" d="M99.2 426.767l12.556-4.867h120.838l12.507 4.867z" class="cls-5" transform="translate(-77.982 -321.94)"/>
                <path id="Rectangle_1124" d="M0 0H130.571V82.684H0z" class="cls-1" transform="translate(28.859 8.663)"/>
                <path id="Rectangle_1125" d="M0 0H130.717V3.212H0z" class="cls-5" transform="translate(28.762 8.663)"/>
                <path id="Path_2973" fill="#c7c7c7" d="M118.155 236.727a.827.827 0 1 1-.827-.827.82.82 0 0 1 .827.827z" transform="translate(-86.862 -226.459)"/>
                <circle id="Ellipse_173" cx=".827" cy=".827" r=".827" class="cls-1" transform="translate(32.898 9.441)"/>
                <path id="Path_2974" d="M131.455 236.727a.82.82 0 0 1-.827.827.792.792 0 0 1-.827-.827.82.82 0 0 1 .827-.827.82.82 0 0 1 .827.827z" class="cls-7" transform="translate(-93.69 -226.459)"/>
            </g>
            <g id="freepik--Character--inject-2" transform="translate(20.196 53.36)">
                <path id="Path_2975" d="M148.807 165.728c-5.986 7.884-6.375 19.564-6.375 19.564s-5.013 12.41-2.287 18.347a11.509 11.509 0 0 0 8.273 6.667L147.3 207s2.871 4.137 10.609 4.867 17.228-2.969 22.046-6.327a19.81 19.81 0 0 0 6.57-7.738l-1.217 5.3a15.067 15.067 0 0 0 10.415-9.587c3.212-8.273-10.707-17.617-12.118-19.9-1.411-2.239-5.207-19.418-23.068-13.87.047-.051-7.594.533-11.73 5.983z" class="cls-2" transform="translate(-114.838 -158.645)"/>
                <path id="Path_2976" d="M142.99 235.469a12.043 12.043 0 0 1-5.6-4.38 10.952 10.952 0 0 1-2.141-6.716c.1-2.871 1.217-5.6 2.287-8.225 1.119-2.725 2.482-5.353 3.553-8.127a.131.131 0 0 0-.243-.1 63.124 63.124 0 0 0-3.7 6.667 29.541 29.541 0 0 0-2.725 6.667 11.441 11.441 0 0 0 .049 6.521 11.83 11.83 0 0 0 2.969 4.526 24.034 24.034 0 0 0 5.353 3.309c.049 0 .1 0 .1-.049.243 0 .195-.049.1-.1z" class="cls-2" transform="translate(-112.087 -183.905)"/>
                <path id="Path_2977" d="M233.961 189.567c-3.115-6.083-9.49-9.344-13.772-14.405-2.287-2.774-4.283-5.937-7.105-8.176-.049-.049-.146.049-.1.1 2.385 2.093 3.942 4.721 5.791 7.251a45.1 45.1 0 0 0 6.525 6.763c4.234 3.845 9.3 8.322 9.344 14.551 0 2.871-1.168 6.181-3.942 7.495-.1.049 0 .243.1.146a9.029 9.029 0 0 0 4.283-5.743 11.15 11.15 0 0 0-1.124-7.982z" class="cls-2" transform="translate(-152.64 -162.92)"/>
                <path id="Path_2978" d="M240.768 200.644a12.059 12.059 0 0 0-2.579-6.716 16.78 16.78 0 0 0-5.937-4.137c-2.482-1.168-5.11-2.287-6.911-4.526-.049-.1-.243.049-.1.1 2.871 3.65 7.495 4.915 10.95 7.835 3.942 3.309 4.721 8.906 3.066 13.626a19.146 19.146 0 0 1-5.207 7.495c-.049.049 0 .1.049.049 3.847-3.458 7.059-8.324 6.669-13.726z" class="cls-2" transform="translate(-158.912 -172.294)"/>
                <path id="Path_2979" d="M190 262.475c5.937 6.278 36.4 35.721 49.737 32.947 16.108-3.309 34.893-13.14 42.193-20.1 4.137-3.893-15.67-23.652-19.758-20.634-6.473 4.769-22.143 12.8-24.917 13.918s-26.085-10.853-39.663-15.622c-12.261-4.184-11.725 5.111-7.592 9.491z" class="cls-8" transform="translate(-139.488 -206.531)"/>
                <path id="Path_2980" d="M370.086 251.191c-3.6 4.769-14.7 11.68-18.055 12.264-3.309.633-15.67-17.909-14.6-21.17s14.405-18.444 20.294-19.953 16.108 23.944 12.361 28.859z" class="cls-8" transform="translate(-216.496 -191.305)"/>
                <path id="Path_2981" d="M341.4 226.844a49.278 49.278 0 0 0 1.7-14.308c-.389-5.743-1.557-14.21 1.509-14.551 6.327-.633 9.3 20.488 9.3 20.488s-.146 9.539-6.375 10.707a6.146 6.146 0 0 1-6.134-2.336z" class="cls-8" transform="translate(-218.567 -178.833)"/>
                <path id="Path_2982" d="M360.925 221.034c-.341 3.163 3.553 1.752 3.553 1.752s-5.061 3.358-4.185 6.765c.925 3.261 5.5 1.363 5.84 1.217-.292.146-4.867 3.455-3.6 6.716 1.363 3.455 5.645.73 5.937.584-.243.243-2.774 3.6-1.217 5.937 2.628 3.893 9.49-4.526 13.286-4.769 0 0 1.119 6.424 1.217 6.57 0 0 6.667-7.884 6.035-12.994a3.266 3.266 0 0 0-2.92-2.92s2.433-2.287 1.509-4.964c-.487-1.363-3.066-1.752-3.066-1.752a4.221 4.221 0 0 0 .925-4.234c-.779-1.8-3.212-2-3.212-2s.925-2.725-.438-4.283c-2.777-3.353-18.982 1.611-19.664 8.375z" class="cls-8" transform="translate(-228.213 -185.822)"/>
                <path id="Path_2983" d="M384.937 222.2a.067.067 0 0 0 0-.1 29.453 29.453 0 0 0-16.4 6.083c-.146.1 0 .389.146.341a60.029 60.029 0 0 1 16.254-6.324z" class="cls-9" transform="translate(-232.466 -191.219)"/>
                <path id="Path_2984" d="M389.478 234.9c.049 0 .049-.1 0-.1a27.332 27.332 0 0 0-17.471 7.787c-.146.146-.1.438.049.292 3.309-3.018 12.069-6.814 17.422-7.979z" class="cls-9" transform="translate(-234.234 -197.738)"/>
                <path id="Path_2985" d="M376.695 257.56c4.672-4.429 10.269-6.911 16.4-8.663.049 0 .049-.1-.049-.1-3.212.049-7.057 1.557-9.879 2.969a17.492 17.492 0 0 0-6.667 5.694s.1.197.195.1z" class="cls-9" transform="translate(-236.585 -204.925)"/>
                <path id="Path_2986" d="M363.653 234.5c-.146.146.243.243.049.389-.73.633-4.721 4.769-3.7 6.57.779 1.46 3.309 1.363 4.234.973l2.385-1.022-1.9 1.752a10.432 10.432 0 0 0-2.093 2.725 3.685 3.685 0 0 0-.389 3.115 2.17 2.17 0 0 0 2.239 1.509 6.278 6.278 0 0 0 3.115-1.168l2.531-1.7-1.9 2.482a12.436 12.436 0 0 0-1.314 2.19 4.34 4.34 0 0 0-.341 2.385 1.874 1.874 0 0 0 1.411 1.509 4.5 4.5 0 0 0 2.385-.389 29.169 29.169 0 0 0 4.672-2.579c.779-.438 1.509-.973 2.287-1.363a6.914 6.914 0 0 1 2.531-.925 9.184 9.184 0 0 0-2.433 1.119c-.73.487-1.46 1.022-2.19 1.509a25.256 25.256 0 0 1-4.623 2.871 5.1 5.1 0 0 1-2.823.584 2.832 2.832 0 0 1-2.141-2.141 5.351 5.351 0 0 1 .341-2.92 9.632 9.632 0 0 1 1.411-2.482l.681.73a8 8 0 0 1-3.6 1.411 3.06 3.06 0 0 1-2.044-.584 3.273 3.273 0 0 1-1.217-1.7 4.758 4.758 0 0 1 .487-3.893 10.646 10.646 0 0 1 2.385-2.92l.487.779c-1.217.438-3.991.827-5.5-1.217-1.604-3.122 3.603-7.015 4.577-7.599z" class="cls-9" transform="translate(-227.485 -197.584)"/>
                <path id="Path_2987" d="M364.608 229.726a6.853 6.853 0 0 1-2 0 1.418 1.418 0 0 1-1.168-.925 4.024 4.024 0 0 1 .049-1.7 17.333 17.333 0 0 1 .633-1.9 4.834 4.834 0 0 0-1.314 1.655 3.264 3.264 0 0 0-.292 2.239 2.175 2.175 0 0 0 .779.973 1.894 1.894 0 0 0 1.119.341 3.2 3.2 0 0 0 2.194-.683z" class="cls-9" transform="translate(-228.343 -192.81)"/>
                <path id="Path_2988" d="M256.323 256.2l22.877 25.839s-33.969 16.644-45.065 14.065c-11.1-2.531-33.969-19.758-43.945-32.12s-3.942-15.719 9.977-11.144 33.628 13.626 35.624 13.529 20.532-10.169 20.532-10.169z" class="cls-7" transform="translate(-138.406 -205.996)"/>
                <path id="Path_2989" d="M279.353 282.126s-33.969 16.644-45.065 14.064c-6.862-1.557-18.347-8.857-28.47-17.13-.049 0-.049-.049-.1-.1a107.888 107.888 0 0 1-15.378-14.94c-3.261-3.991-4.769-7.057-4.964-9.2a4.7 4.7 0 0 1 .049-1.168c.779-3.358 6.375-3.553 14.892-.73 13.967 4.623 33.628 13.578 35.623 13.529s20.488-10.269 20.488-10.269z" class="cls-10" transform="translate(-138.465 -206.034)"/>
                <path id="Path_2990" d="M251.1 309.577a2.594 2.594 0 0 1 1.363-.049 1.261 1.261 0 0 1 .827 1.168.9.9 0 0 0 .438.827.939.939 0 0 0 .487.146c.243.049.438.049.633.1a2.594 2.594 0 0 1-1.363.049 1.408 1.408 0 0 1-.779-1.168.856.856 0 0 0-.487-.827 1.038 1.038 0 0 0-.584-.146c-.097-.051-.34-.051-.535-.1z" class="cls-1" transform="translate(-172.212 -236.065)"/>
                <path id="Path_2991" d="M187.371 258.544a2.594 2.594 0 0 1-1.363.049 1.116 1.116 0 0 1-.73-.925 4.6 4.6 0 0 1 .049-1.168 1.33 1.33 0 0 1 .389.925.9.9 0 0 0 .438.827.939.939 0 0 0 .487.146 4.82 4.82 0 0 0 .73.146z" class="cls-1" transform="translate(-138.413 -208.878)"/>
                <path id="Path_2992" d="M317.3 291.277a2.594 2.594 0 0 1 1.363-.049 1.261 1.261 0 0 1 .827 1.168.9.9 0 0 0 .438.827.939.939 0 0 0 .487.146c.243.049.438.049.633.1a2.593 2.593 0 0 1-1.363.049 1.317 1.317 0 0 1-.779-1.168.856.856 0 0 0-.487-.827 1.038 1.038 0 0 0-.584-.146c-.146-.051-.292-.051-.535-.1z" class="cls-1" transform="translate(-206.196 -226.671)"/>
                <path id="Path_2993" d="M363.1 310.677a2.6 2.6 0 0 1 1.363-.049 1.214 1.214 0 0 1 .827 1.168.9.9 0 0 0 .438.827.939.939 0 0 0 .487.146c.243.049.438.049.633.1a2.594 2.594 0 0 1-1.363.049 1.317 1.317 0 0 1-.779-1.168.856.856 0 0 0-.487-.827 1.038 1.038 0 0 0-.584-.146c-.097-.051-.34-.051-.535-.1z" class="cls-1" transform="translate(-229.706 -236.629)"/>
                <path id="Path_2994" d="M274 323.177a2.594 2.594 0 0 1 1.363-.049 1.261 1.261 0 0 1 .827 1.168.9.9 0 0 0 .438.827.939.939 0 0 0 .487.146c.243.049.438.049.633.1a2.593 2.593 0 0 1-1.363.049 1.316 1.316 0 0 1-.779-1.168.856.856 0 0 0-.487-.827 1.037 1.037 0 0 0-.584-.146 4.344 4.344 0 0 1-.535-.1z" class="cls-1" transform="translate(-183.968 -243.046)"/>
                <path id="Path_2995" d="M223.9 259.577a2.594 2.594 0 0 1 1.363-.049 1.261 1.261 0 0 1 .827 1.168.9.9 0 0 0 .438.827.939.939 0 0 0 .487.146c.243.049.438.049.633.1a2.594 2.594 0 0 1-1.363.049 1.408 1.408 0 0 1-.779-1.168.856.856 0 0 0-.487-.827 1.038 1.038 0 0 0-.584-.146c-.146-.051-.389-.051-.535-.1z" class="cls-1" transform="translate(-158.25 -210.398)"/>
                <path id="Path_2996" d="M327.78 320.7a3.057 3.057 0 0 1-.925 1.022 1.28 1.28 0 0 1-1.411-.243 1.176 1.176 0 0 0-.973-.292.873.873 0 0 0-.487.292 1.684 1.684 0 0 1-.584.341c.243-.341.438-.779.925-.973a1.488 1.488 0 0 1 1.411.292 1.014 1.014 0 0 0 .973.243.873.873 0 0 0 .487-.292c.195-.098.341-.244.584-.39z" class="cls-1" transform="translate(-209.327 -241.834)"/>
                <path id="Path_2997" d="M272.68 299a3.055 3.055 0 0 1-.925 1.022 1.28 1.28 0 0 1-1.411-.243 1.176 1.176 0 0 0-.973-.292.873.873 0 0 0-.487.292 1.683 1.683 0 0 1-.584.341c.243-.341.438-.779.925-.973a1.488 1.488 0 0 1 1.411.292 1.014 1.014 0 0 0 .973.243.873.873 0 0 0 .487-.292c.243-.147.389-.29.584-.39z" class="cls-1" transform="translate(-181.042 -230.695)"/>
                <path id="Path_2998" d="M299.38 310.9a3.055 3.055 0 0 1-.925 1.022 1.251 1.251 0 0 1-1.411-.243 1.176 1.176 0 0 0-.973-.292.873.873 0 0 0-.487.292 1.683 1.683 0 0 1-.584.341c.243-.341.438-.779.925-.973a1.488 1.488 0 0 1 1.411.292 1.014 1.014 0 0 0 .973.243.873.873 0 0 0 .487-.292 3.027 3.027 0 0 0 .584-.39z" class="cls-1" transform="translate(-194.748 -236.804)"/>
                <path id="Path_2999" d="M333.98 271.6a3.058 3.058 0 0 1-.925 1.022 1.28 1.28 0 0 1-1.411-.243 1.176 1.176 0 0 0-.973-.292 1.145 1.145 0 0 0-.487.243 3.094 3.094 0 0 1-.584.341c.243-.341.438-.779.925-.973a1.488 1.488 0 0 1 1.411.292 1.014 1.014 0 0 0 .973.243c.146-.049.389-.1.487-.292a1.684 1.684 0 0 0 .584-.341z" class="cls-1" transform="translate(-212.51 -216.629)"/>
                <path id="Path_3000" d="M204.167 268.8a2.594 2.594 0 0 1 .049 1.363 1.261 1.261 0 0 1-1.168.827.9.9 0 0 0-.827.438.939.939 0 0 0-.146.487c-.049.243-.049.438-.1.633a2.594 2.594 0 0 1-.049-1.363 1.408 1.408 0 0 1 1.168-.779.856.856 0 0 0 .827-.487 1.038 1.038 0 0 0 .146-.584 4.338 4.338 0 0 1 .1-.535z" class="cls-1" transform="translate(-146.936 -215.192)"/>
                <path id="Path_3001" d="M343.867 302.1a2.594 2.594 0 0 1 .049 1.363 1.261 1.261 0 0 1-1.168.827.9.9 0 0 0-.827.438.939.939 0 0 0-.146.487c-.049.243-.049.438-.1.633a2.594 2.594 0 0 1-.049-1.363 1.317 1.317 0 0 1 1.168-.779.856.856 0 0 0 .827-.487 1.038 1.038 0 0 0 .146-.584 1.244 1.244 0 0 1 .1-.535z" class="cls-1" transform="translate(-218.649 -232.286)"/>
                <path id="Path_3002" d="M304.567 330.9a2.594 2.594 0 0 1 .049 1.363 1.261 1.261 0 0 1-1.168.827.9.9 0 0 0-.827.438.939.939 0 0 0-.146.487c-.049.243-.049.438-.1.633a2.594 2.594 0 0 1-.049-1.363 1.316 1.316 0 0 1 1.168-.779.856.856 0 0 0 .827-.487 1.038 1.038 0 0 0 .146-.584 3.625 3.625 0 0 0 .1-.535z" class="cls-1" transform="translate(-198.475 -247.07)"/>
                <path id="Path_3003" d="M297.767 282.3a2.6 2.6 0 0 1 .049 1.363 1.261 1.261 0 0 1-1.168.827.9.9 0 0 0-.827.438.938.938 0 0 0-.146.487c-.049.243-.049.438-.1.633a2.594 2.594 0 0 1-.049-1.363 1.317 1.317 0 0 1 1.168-.779.856.856 0 0 0 .827-.487 1.038 1.038 0 0 0 .146-.584c.051-.146.051-.34.1-.535z" class="cls-1" transform="translate(-194.984 -222.122)"/>
                <path id="Path_3004" d="M252.467 278.3a2.594 2.594 0 0 1 .049 1.363 1.214 1.214 0 0 1-1.168.827.9.9 0 0 0-.827.438.939.939 0 0 0-.146.487c-.049.243-.049.438-.1.633a2.594 2.594 0 0 1-.049-1.363 1.316 1.316 0 0 1 1.168-.779.856.856 0 0 0 .827-.487 1.038 1.038 0 0 0 .146-.584 2.647 2.647 0 0 0 .1-.535z" class="cls-1" transform="translate(-171.73 -220.069)"/>
                <path id="Path_3005" d="M227.2 308.441c-.049 0-.049-.049-.1-.1a2.107 2.107 0 0 0 .049-.243.828.828 0 0 0 .051.343z" class="cls-1" transform="translate(-159.892 -235.366)"/>
                <path id="Path_3006" d="M222.8 287.195a3.056 3.056 0 0 1 .925-1.022 1.266 1.266 0 0 1 1.411.243 1 1 0 0 0 1.411 0 3.09 3.09 0 0 1 .584-.341c-.243.341-.438.779-.925.973a1.488 1.488 0 0 1-1.411-.292 1.014 1.014 0 0 0-.973-.243.873.873 0 0 0-.487.292 1.862 1.862 0 0 1-.535.39z" class="cls-1" transform="translate(-157.685 -224.048)"/>
                <path id="Path_3007" d="M340.726 295.978c-1.168-1.7-2.725-3.261-4.039-4.867-1.363-1.557-2.823-3.212-4.283-4.867-2.823-3.115-5.694-6.083-8.614-9.149-1.7-1.752-3.455-3.455-5.207-5.11-.049-.049-.146.049-.1.1 2.774 3.212 5.5 6.473 8.322 9.636s5.645 6.181 8.565 9.2l2.531 2.531c.827.925 1.752 1.752 2.628 2.579.149.045.246-.004.197-.053z" class="cls-11" transform="translate(-206.798 -216.821)"/>
                <path id="Path_3008" d="M246.355 295.048c-4.964 1.314-9.344 1.9-12.167 1.314-6.862-1.557-18.347-8.857-28.47-17.13-.049 0-.049-.049-.1-.1a107.886 107.886 0 0 1-15.378-14.94c-3.261-3.991-4.769-7.057-4.964-9.2a4.7 4.7 0 0 1 .049-1.168c.341-1.557 1.752-2.433 3.942-2.628z" opacity="0.1" transform="translate(-138.413 -206.157)"/>
                <path id="Path_3009" d="M177.645 294.451l5.355 30.27h-63.9c1.8-29.589 18.98-61.854 26.523-71.1 3.8-4.623 11.29-5.6 16.984-1.849 1.363.925 17.033 23.992 18.3 27.4 2.481 6.616-3.262 15.279-3.262 15.279z" class="cls-10" transform="translate(-104.452 -205.268)"/>
                <path id="Path_3010" d="M195.9 295.377a2.594 2.594 0 0 1 1.363-.049 1.261 1.261 0 0 1 .827 1.168 1 1 0 0 0 1.022 1.022c.243.049.438.049.633.1a2.6 2.6 0 0 1-1.363.049 1.408 1.408 0 0 1-.779-1.168.856.856 0 0 0-.487-.827 1.037 1.037 0 0 0-.584-.146 2.971 2.971 0 0 0-.632-.149z" class="cls-1" transform="translate(-143.876 -228.775)"/>
                <path id="Path_3011" d="M204.4 349.777a2.594 2.594 0 0 1 1.363-.049 1.261 1.261 0 0 1 .827 1.168.9.9 0 0 0 .438.827.939.939 0 0 0 .487.146c.243.049.438.049.633.1a2.594 2.594 0 0 1-1.363.049 1.316 1.316 0 0 1-.779-1.168.856.856 0 0 0-.487-.827 1.038 1.038 0 0 0-.584-.146 3.176 3.176 0 0 1-.535-.1z" class="cls-1" transform="translate(-148.239 -256.701)"/>
                <path id="Path_3012" d="M172.2 313.577a2.594 2.594 0 0 1 1.363-.049 1.261 1.261 0 0 1 .827 1.168.9.9 0 0 0 .438.827.939.939 0 0 0 .487.146c.243.049.438.049.633.1a2.594 2.594 0 0 1-1.363.049 1.316 1.316 0 0 1-.779-1.168.856.856 0 0 0-.487-.827.939.939 0 0 0-.487-.146c-.243-.051-.389-.051-.632-.1z" class="cls-1" transform="translate(-131.71 -238.118)"/>
                <path id="Path_3013" d="M154.7 369.377a2.594 2.594 0 0 1 1.363-.049 1.261 1.261 0 0 1 .827 1.168.9.9 0 0 0 .438.827.939.939 0 0 0 .487.146c.243.049.438.049.633.1a2.593 2.593 0 0 1-1.363.049 1.316 1.316 0 0 1-.779-1.168.856.856 0 0 0-.487-.827 1.038 1.038 0 0 0-.584-.146 2.645 2.645 0 0 0-.535-.1z" class="cls-1" transform="translate(-122.726 -266.762)"/>
                <path id="Path_3014" d="M233.3 396.477a2.594 2.594 0 0 1 1.363-.049 1.261 1.261 0 0 1 .827 1.168.9.9 0 0 0 .438.827.939.939 0 0 0 .487.146c.243.049.438.049.633.1a2.594 2.594 0 0 1-1.363.049 1.317 1.317 0 0 1-.779-1.168.856.856 0 0 0-.487-.827 1.038 1.038 0 0 0-.584-.146c-.097-.051-.34-.051-.535-.1z" class="cls-1" transform="translate(-163.075 -280.674)"/>
                <path id="Path_3015" d="M124.155 375.881a2.594 2.594 0 0 1-1.363.049 1.616 1.616 0 0 0-.292-.146c.049-.146.049-.341.1-.584a.481.481 0 0 0 .341.341.939.939 0 0 0 .487.146 4.146 4.146 0 0 0 .727.194z" class="cls-1" transform="translate(-106.197 -269.811)"/>
                <path id="Path_3016" d="M181.7 255.977a2.594 2.594 0 0 1 1.363-.049 1.261 1.261 0 0 1 .827 1.168.9.9 0 0 0 .438.827.939.939 0 0 0 .487.146c.243.049.438.049.633.1a2.594 2.594 0 0 1-1.363.049 1.316 1.316 0 0 1-.779-1.168.856.856 0 0 0-.487-.827 1.038 1.038 0 0 0-.584-.146 2.642 2.642 0 0 0-.535-.1z" class="cls-1" transform="translate(-136.587 -208.55)"/>
                <path id="Path_3017" d="M223.983 334.8a3.056 3.056 0 0 1-.925 1.022 1.251 1.251 0 0 1-1.411-.243 1.176 1.176 0 0 0-.973-.292.873.873 0 0 0-.487.292 2.957 2.957 0 0 1-.487.341c.243-.341.438-.779.925-.973a1.488 1.488 0 0 1 1.411.292 1.014 1.014 0 0 0 .973.243.873.873 0 0 0 .487-.292 1.017 1.017 0 0 1 .487-.39z" class="cls-1" transform="translate(-156.094 -249.072)"/>
                <path id="Path_3018" d="M142.047 317.4a3.055 3.055 0 0 1-.925 1.022 1.247 1.247 0 0 1-1.022 0l.146-.438a1.1 1.1 0 0 0 .681.049 1.3 1.3 0 0 0 .487-.292c.243-.098.386-.241.633-.341z" class="cls-1" transform="translate(-115.232 -240.14)"/>
                <path id="Path_3019" d="M139.583 354.9a3.056 3.056 0 0 1-.925 1.022 1.28 1.28 0 0 1-1.411-.243 1.176 1.176 0 0 0-.973-.292.873.873 0 0 0-.487.292 2.954 2.954 0 0 1-.487.341c.243-.341.438-.779.925-.973a1.488 1.488 0 0 1 1.411.292 1.014 1.014 0 0 0 .973.243 1.3 1.3 0 0 0 .487-.292.8.8 0 0 1 .487-.39z" class="cls-1" transform="translate(-112.768 -259.391)"/>
                <path id="Path_3020" d="M175.983 392.7a3.056 3.056 0 0 1-.925 1.022 1.251 1.251 0 0 1-1.411-.243 1.176 1.176 0 0 0-.973-.292.873.873 0 0 0-.487.292 2.956 2.956 0 0 1-.487.341c.243-.341.438-.779.925-.973a1.488 1.488 0 0 1 1.411.292 1.014 1.014 0 0 0 .973.243.873.873 0 0 0 .487-.292c.146-.098.292-.244.487-.39z" class="cls-1" transform="translate(-131.453 -278.795)"/>
                <path id="Path_3021" d="M178.734 346.777a3.056 3.056 0 0 1-.925 1.022 1.28 1.28 0 0 1-1.411-.243 1.048 1.048 0 0 0-1.411-.049 2.953 2.953 0 0 1-.487.341c.243-.341.389-.779.925-.973a1.2 1.2 0 0 1 1.411.292 1.014 1.014 0 0 0 .973.243.873.873 0 0 0 .487-.292 1.135 1.135 0 0 1 .438-.341z" class="cls-1" transform="translate(-132.891 -255.21)"/>
                <path id="Path_3022" d="M209.38 385a3.056 3.056 0 0 1-.925 1.022 1.251 1.251 0 0 1-1.411-.243 1.177 1.177 0 0 0-.973-.292.874.874 0 0 0-.487.292 3.09 3.09 0 0 1-.584.341c.243-.341.438-.779.925-.973a1.488 1.488 0 0 1 1.411.292 1.014 1.014 0 0 0 .973.243.873.873 0 0 0 .487-.292 5.956 5.956 0 0 1 .584-.39z" class="cls-1" transform="translate(-148.547 -274.842)"/>
                <path id="Path_3023" d="M204.167 268.8a2.594 2.594 0 0 1 .049 1.363 1.261 1.261 0 0 1-1.168.827.9.9 0 0 0-.827.438.939.939 0 0 0-.146.487c-.049.243-.049.438-.1.633a2.594 2.594 0 0 1-.049-1.363 1.408 1.408 0 0 1 1.168-.779.856.856 0 0 0 .827-.487 1.038 1.038 0 0 0 .146-.584 4.338 4.338 0 0 1 .1-.535z" class="cls-1" transform="translate(-146.936 -215.192)"/>
                <path id="Path_3024" d="M229.767 366a2.594 2.594 0 0 1 .049 1.363 1.261 1.261 0 0 1-1.168.827.9.9 0 0 0-.827.438.939.939 0 0 0-.146.487c-.049.243-.049.438-.1.633a2.594 2.594 0 0 1-.049-1.363 1.316 1.316 0 0 1 1.168-.779.856.856 0 0 0 .827-.487 1.038 1.038 0 0 0 .146-.584 3.179 3.179 0 0 1 .1-.535z" class="cls-1" transform="translate(-160.077 -265.089)"/>
                <path id="Path_3025" d="M224.767 308.1a2.594 2.594 0 0 1 .049 1.363 1.261 1.261 0 0 1-1.168.827.9.9 0 0 0-.827.438.939.939 0 0 0-.146.487c-.049.243-.049.438-.1.633a2.6 2.6 0 0 1-.049-1.363 1.316 1.316 0 0 1 1.168-.779.856.856 0 0 0 .827-.487 1.038 1.038 0 0 0 .146-.584 4.342 4.342 0 0 1 .1-.535z" class="cls-1" transform="translate(-157.511 -235.366)"/>
                <path id="Path_3026" d="M198.316 323a2.594 2.594 0 0 1 .049 1.363 1.261 1.261 0 0 1-1.168.827 1 1 0 0 0-1.022 1.022c-.049.243-.049.438-.1.633a2.594 2.594 0 0 1-.049-1.363 1.316 1.316 0 0 1 1.168-.779.856.856 0 0 0 .827-.487 1.038 1.038 0 0 0 .146-.584c.051-.243.1-.437.149-.632z" class="cls-1" transform="translate(-143.907 -243.015)"/>
                <path id="Path_3027" d="M139.567 386.1a2.594 2.594 0 0 1 .049 1.363 1.261 1.261 0 0 1-1.168.827.9.9 0 0 0-.827.438.939.939 0 0 0-.146.487c-.049.243-.049.438-.1.633a2.594 2.594 0 0 1-.049-1.363 1.316 1.316 0 0 1 1.168-.779.856.856 0 0 0 .827-.487 1.038 1.038 0 0 0 .146-.584 3.175 3.175 0 0 1 .1-.535z" class="cls-1" transform="translate(-113.774 -275.407)"/>
                <path id="Path_3028" d="M158.516 295.1a2.594 2.594 0 0 1 .049 1.363 1.261 1.261 0 0 1-1.168.827 1 1 0 0 0-1.022 1.022c-.049.243-.049.438-.1.633a2.594 2.594 0 0 1-.049-1.363 1.317 1.317 0 0 1 1.168-.779.856.856 0 0 0 .827-.487 1.038 1.038 0 0 0 .146-.584c.051-.243.1-.437.149-.632z" class="cls-1" transform="translate(-123.476 -228.693)"/>
                <path id="Path_3029" d="M158.516 333.2a2.594 2.594 0 0 1 .049 1.363 1.261 1.261 0 0 1-1.168.827 1 1 0 0 0-1.022 1.022c-.049.243-.049.438-.1.633a2.594 2.594 0 0 1-.049-1.363 1.316 1.316 0 0 1 1.168-.779.856.856 0 0 0 .827-.487 1.037 1.037 0 0 0 .146-.584 2.415 2.415 0 0 1 .149-.632z" class="cls-1" transform="translate(-123.476 -248.251)"/>
                <path id="Path_3030" d="M189.167 366a2.6 2.6 0 0 1 .049 1.363 1.261 1.261 0 0 1-1.168.827.9.9 0 0 0-.827.438.939.939 0 0 0-.146.487c-.049.243-.049.438-.1.633a2.594 2.594 0 0 1-.049-1.363 1.316 1.316 0 0 1 1.168-.779.856.856 0 0 0 .827-.487 1.038 1.038 0 0 0 .146-.584c.051-.146.051-.292.1-.535z" class="cls-1" transform="translate(-139.236 -265.089)"/>
                <path id="Path_3031" d="M222.8 287.195a3.056 3.056 0 0 1 .925-1.022 1.266 1.266 0 0 1 1.411.243 1 1 0 0 0 1.411 0 3.09 3.09 0 0 1 .584-.341c-.243.341-.438.779-.925.973a1.488 1.488 0 0 1-1.411-.292 1.014 1.014 0 0 0-.973-.243.873.873 0 0 0-.487.292 1.862 1.862 0 0 1-.535.39z" class="cls-1" transform="translate(-157.685 -224.048)"/>
                <path id="Path_3032" d="M176.1 283.295a3.057 3.057 0 0 1 .925-1.022 1.28 1.28 0 0 1 1.411.243 1.176 1.176 0 0 0 .973.292.873.873 0 0 0 .487-.292c.146-.1.341-.243.487-.341-.243.341-.438.779-.925.973a1.488 1.488 0 0 1-1.411-.292 1.014 1.014 0 0 0-.973-.243.873.873 0 0 0-.487.292c-.195.146-.292.341-.487.39z" class="cls-1" transform="translate(-133.712 -222.046)"/>
                <path id="Path_3033" d="M127.7 261.093c-8.517 7.008-39.03 33.044-37.181 42.193 1.849 9.344 8.906 16.887 14.356 11.68 4.526-4.283 24.382-36.256 27.983-44.724 3.452-8.127 3.208-16.108-5.158-9.149z" class="cls-13" transform="translate(-89.736 -209.87)"/>
                <path id="Path_3034" d="M89 300.041c0 6.473 4.331 18.639 12.751 16.4 5.5-1.46 28.324-39.176 32.071-48.131 4.283-10.366.584-14.405-7.349-8.322C118.589 266.023 89 290.794 89 300.041z" class="cls-10" transform="translate(-89 -209.204)"/>
                <path id="Path_3035" d="M136.109 289.241a2.594 2.594 0 0 1-1.363.049c-.049 0-.1-.049-.146-.1.1-.1.243-.146.341-.292l.049.049a.939.939 0 0 0 .487.146 5.42 5.42 0 0 0 .632.148z" class="cls-1" transform="translate(-112.408 -225.51)"/>
                <path id="Path_3036" d="M116.8 334.577a2.594 2.594 0 0 1 1.363-.049 1.261 1.261 0 0 1 .827 1.168.9.9 0 0 0 .438.827.939.939 0 0 0 .487.146c.243.049.438.049.633.1a2.594 2.594 0 0 1-1.363.049 1.317 1.317 0 0 1-.779-1.168.856.856 0 0 0-.487-.827 1.038 1.038 0 0 0-.584-.146c-.146.046-.34-.051-.535-.1z" class="cls-1" transform="translate(-103.271 -248.898)"/>
                <path id="Path_3037" d="M120.144 372.512a2.939 2.939 0 0 1-.389.389 1.279 1.279 0 0 0-.438-.681 1.038 1.038 0 0 0-.584-.146c-.243-.049-.438-.049-.633-.1a2.593 2.593 0 0 1 1.363-.049 1.011 1.011 0 0 1 .681.587z" class="cls-1" transform="translate(-103.938 -268.097)"/>
                <path id="Path_3038" d="M139.583 317.4a3.055 3.055 0 0 1-.925 1.022 1.28 1.28 0 0 1-1.411-.243 1.176 1.176 0 0 0-.973-.292.873.873 0 0 0-.487.292c-.146.1-.341.243-.487.341.243-.341.438-.779.925-.973a1.488 1.488 0 0 1 1.411.292 1.014 1.014 0 0 0 .973.243.873.873 0 0 0 .487-.292 1.016 1.016 0 0 1 .487-.39z" class="cls-1" transform="translate(-112.768 -240.14)"/>
                <path id="Path_3039" d="M161.067 266.5a2.594 2.594 0 0 1 .049 1.363 1.214 1.214 0 0 1-1.168.827.9.9 0 0 0-.827.438.939.939 0 0 0-.146.487c-.049.243-.049.438-.1.633a2.594 2.594 0 0 1-.049-1.363 1.316 1.316 0 0 1 1.168-.779.856.856 0 0 0 .827-.487 1.038 1.038 0 0 0 .146-.584 2.647 2.647 0 0 0 .1-.535z" class="cls-1" transform="translate(-124.811 -214.011)"/>
                <path id="Path_3040" d="M158.516 295.1a2.594 2.594 0 0 1 .049 1.363 1.261 1.261 0 0 1-1.168.827 1 1 0 0 0-1.022 1.022c-.049.243-.049.438-.1.633a2.594 2.594 0 0 1-.049-1.363 1.317 1.317 0 0 1 1.168-.779.856.856 0 0 0 .827-.487 1.038 1.038 0 0 0 .146-.584c.051-.243.1-.437.149-.632z" class="cls-1" transform="translate(-123.476 -228.693)"/>
                <path id="Path_3041" d="M103.667 356a2.594 2.594 0 0 1 .049 1.363 1.214 1.214 0 0 1-1.168.827.9.9 0 0 0-.827.438.939.939 0 0 0-.146.487c-.049.243-.049.438-.1.633a2.594 2.594 0 0 1-.049-1.363 1.317 1.317 0 0 1 1.168-.779.856.856 0 0 0 .827-.487 1.038 1.038 0 0 0 .146-.584 3.18 3.18 0 0 1 .1-.535z" class="cls-1" transform="translate(-95.345 -259.955)"/>
                <path id="Path_3042" d="M177.9 282.385a1 1 0 0 1-.243.438 1.1 1.1 0 0 0-.681-.049.873.873 0 0 0-.487.292 1.683 1.683 0 0 1-.584.341 2.569 2.569 0 0 1 .925-1.022 1.363 1.363 0 0 1 1.07 0z" class="cls-1" transform="translate(-133.609 -222.109)"/>
                <path id="Path_3043" d="M145.453 303.2c-.779 1.071-1.557 2.093-2.433 3.115l-.584.73c.487-.973 1.022-2 1.46-2.92.73-1.411 1.411-2.871 2-4.331.049-.1-.1-.146-.146-.049-.779 1.168-1.363 2.482-2.093 3.65s-1.411 2.482-2.093 3.65c-1.411 2.482-2.823 4.915-4.283 7.349-2.92 4.867-6.083 9.539-9.3 14.162-.925 1.314-1.8 2.579-2.774 3.893s-1.849 2.628-2.823 3.942c-.049.049.049.1.049.049.925-1.119 1.849-2.19 2.774-3.261s1.752-2.19 2.579-3.309c1.752-2.239 3.358-4.575 5.013-6.862q4.818-7.081 8.906-14.6l.243-.389c.438-.487.925-1.022 1.363-1.509.779-1.022 1.509-2.093 2.19-3.163.099-.147-.001-.196-.048-.147z" class="cls-11" transform="translate(-106.131 -231.05)"/>
                <path id="Path_3044" d="M190.962 236.546s1.849 7.641-.341 8.663c-4.185 2-11.534-4.185-12.069-5.256-.1-.292-.73-7.592-1.168-13.286-.292-3.65-.584-6.667-.584-6.667l14.551 5.743-.341 10.025z" class="cls-8" transform="translate(-134.071 -190.141)"/>
                <path id="Path_3045" d="M191.351 225.791l-.341 10.025a20 20 0 0 1-13.626-9.149c-.292-3.65-.584-6.667-.584-6.667l1.8.681z" class="cls-9" transform="translate(-134.071 -190.141)"/>
                <path id="Path_3046" d="M212.184 200.281c.243 4.137 3.309 7.251 6.911 7.105s6.375-3.65 6.132-7.787-3.309-7.251-6.911-7.105c-3.601.195-6.375 3.699-6.132 7.787z" class="cls-5" transform="translate(-152.228 -176.019)"/>
                <path id="Path_3047" d="M207.886 200.05c.243 4.575 3.7 8.127 7.738 7.884 3.991-.243 7.057-4.137 6.813-8.663s-3.7-8.127-7.738-7.884c-3.991.195-7.057 4.089-6.813 8.663z" class="cls-1" transform="translate(-150.022 -175.447)"/>
                <path id="Path_3048" d="M199.381 180.581c1.363 17.568-9 20.391-12.8 20.683-3.455.292-15.232.73-18.347-16.644-3.163-17.374 4.575-23.554 12.41-24.576s17.374 2.968 18.737 20.537z" class="cls-8" transform="translate(-129.302 -159.287)"/>
                <path id="Path_3049" d="M219.22 193.869a5 5 0 0 1-1.168-.243 1.744 1.744 0 0 1-1.168-.438.746.746 0 0 1 0-.779 1.457 1.457 0 0 1 1.509-.389 2.179 2.179 0 0 1 1.46.779.744.744 0 0 1-.1.973 2.513 2.513 0 0 1-.533.097z" class="cls-2" transform="translate(-154.592 -175.738)"/>
                <path id="Path_3050" d="M196.1 195.715a5.3 5.3 0 0 0 1.168-.341 1.929 1.929 0 0 0 1.119-.584.655.655 0 0 0-.049-.779 1.64 1.64 0 0 0-1.557-.292 2.153 2.153 0 0 0-1.411.925.682.682 0 0 0 .146.925 1.02 1.02 0 0 0 .584.146z" class="cls-2" transform="translate(-143.539 -176.612)"/>
                <path id="Path_3051" d="M202.2 206.686c0-.049-.049.049-.049.1.146 1.168.1 2.579-.973 3.115-.049 0 0 .049 0 .049 1.265-.344 1.362-2.193 1.022-3.264z" class="cls-2" transform="translate(-146.574 -183.3)"/>
                <path id="Path_3052" d="M199.362 204.2c-1.9 0-1.752 3.893.049 3.893s1.605-3.893-.049-3.893z" class="cls-2" transform="translate(-144.953 -182.03)"/>
                <path id="Path_3053" d="M196.887 204.679c-.341.243-.633.633-1.071.681s-.827-.341-1.168-.681c-.049-.049-.049 0-.049.049a1.411 1.411 0 0 0 1.119 1.557c.779.1 1.217-.633 1.363-1.363.05-.146-.048-.292-.194-.243z" class="cls-2" transform="translate(-143.209 -182.266)"/>
                <path id="Path_3054" d="M217.564 204.986c0-.049.1.049.1.1 0 1.168.243 2.579 1.363 2.92.049 0 .049.049 0 .049-1.317-.1-1.609-1.901-1.463-3.069z" class="cls-2" transform="translate(-154.979 -182.427)"/>
                <path id="Path_3055" d="M218.591 202.388c1.9-.243 2.239 3.65.438 3.845-1.801.146-1.995-3.699-.438-3.845z" class="cls-2" transform="translate(-154.984 -181.095)"/>
                <path id="Path_3056" d="M221.227 202.217c.341.146.681.487 1.022.487s.73-.438.973-.925c0-.049.049 0 .049.049.049.73-.1 1.509-.779 1.752s-1.168-.389-1.411-1.119c-.049-.05 0-.293.146-.244z" class="cls-2" transform="translate(-156.793 -180.777)"/>
                <path id="Path_3057" d="M205.056 226.689c.779.487 4.477.243 5.207-.341l.1-.049.049.1a3.73 3.73 0 0 1-2.92 2.239 2.8 2.8 0 0 1-2.628-1.8c-.148-.149.192-.246.192-.149z" class="cls-1" transform="translate(-148.458 -193.375)"/>
                <path id="Path_3058" d="M165.634 182.732c1.9 0 7.154-5.013 7.787-14.259 0 0-1.119 8.225-1.8 9.49-.681 1.217 2.92-2.823 3.553-10.269a29.234 29.234 0 0 0 7.446 4.331c3.455 1.119 5.645 1.217 5.937 1.022s-4.867-2.141-6.132-3.845c0 0 9.149 4.867 13.48 5.4.487.049-.633-7.592-7.105-12.264s-14.989-3.115-17.958-.487c0 0-3.358.292-7.251 5.061-3.991 4.772-.049 15.868 2.043 15.82z" class="cls-2" transform="translate(-126.409 -159.004)"/>
                <path id="Path_3059" d="M167.2 208.371s-3.8-5.5-6.327-4.185c-2.531 1.363.341 9.344 3.212 10.463a2.955 2.955 0 0 0 3.942-1.46c0-.049.049-.049.049-.1z" class="cls-13" transform="translate(-125.394 -181.919)"/>
                <path id="Path_3060" d="M163.762 209.1v.049c2.044.827 3.115 2.774 3.845 4.721a1.653 1.653 0 0 0-2.482-.438c-.049.049 0 .1.049.1a1.9 1.9 0 0 1 2.044.681 9.243 9.243 0 0 1 .973 1.655c.1.146.438.1.341-.1v-.049c-.001-2.677-1.948-6.327-4.77-6.619z" class="cls-2" transform="translate(-127.359 -184.546)"/>
                <path id="Path_3061" d="M170.665 223.633a.633.633 0 1 1-.633-.633.644.644 0 0 1 .633.633z" class="cls-1" transform="translate(-130.273 -191.681)"/>
                <path id="Path_3062" d="M167.679 221.583a.358.358 0 0 1-.389.389.358.358 0 0 1-.389-.389.358.358 0 0 1 .389-.389c.243-.049.389.194.389.389z" class="cls-1" transform="translate(-128.989 -190.75)"/>
                <path id="Path_3063" d="M160.76 211.038l-1.168.243c-.1 0-.292-.049-.292-.146 0-.1.049-.292.146-.292l1.168-.243c.1 0 .292.049.292.146.049.146 0 .292-.146.292z" class="cls-7" transform="translate(-125.088 -185.316)"/>
                <path id="Path_3064" d="M160.409 209.335l-1.217.049a.359.359 0 0 1-.292-.243.359.359 0 0 1 .243-.292l1.217-.049a.359.359 0 0 1 .292.243c0 .195-.052.292-.243.292z" class="cls-7" transform="translate(-124.882 -184.392)"/>
                <path id="Path_3065" d="M166.977 181.294s-1.46-8.857.633-14.064c2.385-5.743 13.675-10.609 22.484-5.5 0 0-13.432-2.628-18.931 5.6-2.287 3.455-1.168 13.967-1.168 13.967z" class="cls-1" transform="translate(-128.775 -159.125)"/>
                <ellipse id="Ellipse_174" cx="7.251" cy="8.273" class="cls-5" rx="7.251" ry="8.273" transform="rotate(-6.258 191.967 -279.83)"/>
                <path id="Path_3066" d="M167.28 204.68c.438 4.137-2.093 7.738-5.694 8.127s-6.862-2.579-7.349-6.716 2.093-7.738 5.694-8.127c3.651-.389 6.911 2.628 7.349 6.716z" class="cls-1" transform="translate(-122.459 -178.812)"/>
                <path id="Path_3067" d="M188.137 229.381l-5.889-1.022-5.548-4.331.681-.827 5.3 4.185 5.645.925z" class="cls-1" transform="translate(-134.02 -191.784)"/>
                <path id="Path_3068" d="M199.2 233.531c.146-1.7 4.672-2.141 4.38.389-.247 2.58-4.53 1.265-4.38-.389z" class="cls-5" transform="translate(-145.566 -196.372)"/>
                <path id="Path_3069" d="M190.24 253.6l-1.46 8.225-11.437-7.641-2.044 3.65s12.41 13.334 12.264 12.7l1.8-7.2 5.451 3.6-2.774-11.388z" class="cls-1" transform="translate(-133.301 -207.389)"/>
                <g id="Group_11404" transform="translate(2.189 83.684)">
                    <path id="Path_3070" d="M97.96 352.44c-7.154-4.039-1.46-13.675 3.991-15.622 12.75-4.526 37.375-5.743 49.4-3.893 3.893.633 1.071 26.182-3.066 27.01-4.239.778-35.726.729-50.325-7.495z" class="cls-8" transform="translate(-94.066 -331.367)"/>
                    <path id="Path_3071" d="M197.5 334.171s12.118-1.7 20.926 1.168c6.083 2.044 18.785 7.835 22.873 26.474.973 4.38-.779 11.388-5.013 4.721-2.969-4.721-3.455-8.614-5.694-11.047 0 0-3.309 8.614-7.787 9.392a87.731 87.731 0 0 1-11.825 1.221c-.146-.73-.341-1.46-.438-2.19 0 0-4.234.633-9.344-3.309z" class="cls-8" transform="translate(-146.887 -332.176)"/>
                    <path id="Path_3072" d="M234.428 343.1c1.7 2.871 5.256 9.052 6.327 15.086 1.217 6.716 1.8 20-3.163 20.829-3.65.633-4.283-4.38-4.283-4.38s-.925 5.5-4.331 5.4c-3.115-.1-3.358-4.039-3.358-4.039s-1.119 3.261-4.137 2.531c-3.553-.827-.633-7.543-3.5-11.534-.683-.923 16.445-23.893 16.445-23.893z" class="cls-8" transform="translate(-157.389 -337.017)"/>
                    <path id="Path_3073" d="M249.495 374.2a27.087 27.087 0 0 1-.049 16.206c-.049.1-.146.146-.146 0a67.663 67.663 0 0 0 .1-16.3c.046.094.095.043.095.094z" class="cls-9" transform="translate(-173.478 -352.93)"/>
                    <path id="Path_3074" d="M234.668 377.249c.73 2.628 1.314 10.366-1.022 16.157-.049.1-.146.146-.146 0a72.3 72.3 0 0 0 1.119-16.206c0 .049 0 0 .049.049z" class="cls-9" transform="translate(-165.367 -354.522)"/>
                    <path id="Path_3075" d="M255.827 411.043a10.491 10.491 0 0 0 1.168-2.969c0-.049-.049-.1-.1-.049-.389 1.752-1.7 3.65-3.6 3.7-2.287.049-3.358-2.531-3.7-4.38 0-.1-.1-.049-.1.049 0 2.141 1.217 4.964 3.8 4.964a3.277 3.277 0 0 0 2.532-1.315z" class="cls-9" transform="translate(-173.581 -369.969)"/>
                    <path id="Path_3076" d="M241.435 406.861c0-.049-.049-.049-.049 0-.633 3.115-2.287 5.256-3.455 5.6a2.911 2.911 0 0 1-3.115-.779 4.838 4.838 0 0 1-1.071-3.212.073.073 0 0 0-.146 0c0 1.411.1 4.039 2.482 4.623 1.948.387 4.868-1.024 5.354-6.232z" class="cls-9" transform="translate(-165.418 -369.729)"/>
                    <path id="Path_3077" d="M228.394 411.689a4.26 4.26 0 0 0 1.217-2.628c0-.049-.049-.049-.049 0-.389 1.8-2.141 3.553-4.039 3.309a.073.073 0 1 0 0 .146 3.156 3.156 0 0 0 2.871-.827z" class="cls-9" transform="translate(-161.235 -370.859)"/>
                    <path id="Path_3078" d="M281.186 403.553c.779-.292 1.46-1.46 1.46-3.553-.146 1.752-.827 3.115-1.7 3.261-.827.146-1.752-.341-3.066-1.9 0-.049-.049 0 0 .049.679.926 1.847 2.629 3.306 2.143z" class="cls-9" transform="translate(-188.137 -366.226)"/>
                    <path id="Path_3079" d="M148.492 330.6l-4.964 31.974s-35.77-5.207-43.945-9.149-8.127-11.388.243-17.082c8.274-5.743 48.666-5.743 48.666-5.743z" class="cls-10" transform="translate(-93.499 -330.6)"/>
                    <path id="Path_3080" d="M187.636 367.1a2.03 2.03 0 0 1 .292 1.314 1.3 1.3 0 0 1-1.022 1.022 1.025 1.025 0 0 0-.779.633 1.1 1.1 0 0 0-.049.584v.633a2.029 2.029 0 0 1-.292-1.314 1.192 1.192 0 0 1 1.071-.973.89.89 0 0 0 .73-.633 1.149 1.149 0 0 0 .049-.584 1.6 1.6 0 0 1 0-.682z" class="cls-1" transform="translate(-140.868 -349.337)"/>
                    <path id="Path_3081" d="M136.236 362.6a2.029 2.029 0 0 1 .292 1.314 1.3 1.3 0 0 1-1.022 1.022 1.025 1.025 0 0 0-.779.633 1.1 1.1 0 0 0-.049.584v.633a2.029 2.029 0 0 1-.292-1.314 1.192 1.192 0 0 1 1.071-.973.89.89 0 0 0 .73-.633 1.149 1.149 0 0 0 .049-.584v-.682z" class="cls-1" transform="translate(-114.482 -347.027)"/>
                    <path id="Path_3082" d="M100.638 372.339c-.146-.1-.292-.243-.438-.341a1.079 1.079 0 0 0 .681-1.217v-.681a2.029 2.029 0 0 1 .292 1.314 1.043 1.043 0 0 1-.535.925z" class="cls-1" transform="translate(-96.939 -350.877)"/>
                    <path id="Path_3083" d="M158.1 382.291a2.153 2.153 0 0 1-1.119-.73 1.246 1.246 0 0 1 0-1.411.887.887 0 0 0 .1-.973.731.731 0 0 0-.341-.438l-.438-.438a2.051 2.051 0 0 1 1.119.73 1.167 1.167 0 0 1-.049 1.411 1.152 1.152 0 0 0-.1.973.731.731 0 0 0 .341.438 2.091 2.091 0 0 1 .487.438z" class="cls-1" transform="translate(-125.737 -355.086)"/>
                    <path id="Path_3084" d="M146.4 340.688a2.152 2.152 0 0 1-1.119-.73 1.326 1.326 0 0 1 0-1.46.887.887 0 0 0 .1-.973.731.731 0 0 0-.341-.438 4.395 4.395 0 0 1-.438-.487 2.051 2.051 0 0 1 1.119.73 1.167 1.167 0 0 1-.049 1.411 1.152 1.152 0 0 0-.1.973 1.515 1.515 0 0 0 .341.438c.196.195.342.39.487.536z" class="cls-1" transform="translate(-119.731 -333.68)"/>
                    <path id="Path_3085" d="M193.4 339.739a2.152 2.152 0 0 1-1.119-.73 1.246 1.246 0 0 1 0-1.411.887.887 0 0 0 .1-.973.731.731 0 0 0-.341-.438 4.386 4.386 0 0 1-.438-.487 2.051 2.051 0 0 1 1.119.73 1.167 1.167 0 0 1-.049 1.411 1.152 1.152 0 0 0-.1.973 1.515 1.515 0 0 0 .341.438 1.546 1.546 0 0 0 .487.487z" class="cls-1" transform="translate(-143.858 -333.218)"/>
                    <path id="Path_3086" d="M168.734 352.236a2.029 2.029 0 0 1-1.314.292 1.3 1.3 0 0 1-1.022-1.022 1.025 1.025 0 0 0-.633-.779 1.1 1.1 0 0 0-.584-.049h-.681a2.029 2.029 0 0 1 1.314-.292 1.192 1.192 0 0 1 .973 1.071.89.89 0 0 0 .633.73 1.149 1.149 0 0 0 .584.049z" class="cls-1" transform="translate(-129.947 -340.751)"/>
                    <path id="Path_3087" d="M111.034 353.736a2.03 2.03 0 0 1-1.314.292 1.3 1.3 0 0 1-1.022-1.022 1.025 1.025 0 0 0-.633-.779 1.1 1.1 0 0 0-.584-.049h-.681a2.03 2.03 0 0 1 1.314-.292 1.192 1.192 0 0 1 .973 1.071.89.89 0 0 0 .633.73 1.149 1.149 0 0 0 .584.049z" class="cls-1" transform="translate(-100.327 -341.521)"/>
                    <path id="Path_3088" d="M183.295 361.747c.438-1.752.827-3.553 1.119-5.353.389-1.849.681-3.65.973-5.5.584-3.553 1.022-7.154 1.46-10.755.292-2.093.438-4.185.633-6.278 0-.049-.1-.049-.146 0-.681 3.6-1.411 7.251-2.044 10.853-.633 3.65-1.119 7.154-1.557 10.755-.1 1.022-.243 2.044-.341 3.115-.146 1.071-.243 2.093-.292 3.163a.1.1 0 1 0 .195 0z" class="cls-11" transform="translate(-139.495 -332.256)"/>
                    <path id="Path_3089" d="M163.777 391.383c.292-.1.584-3.6.584-3.845 0-.049-.049-.049-.049 0 0 .146-.73 3.212-.73 3.212-4.721-.925-9.49-1.655-14.21-2.482s-9.539-1.7-14.259-2.433c-2.628-.389-2.92-.341-.584.243 2.287.487 4.283 1.119 6.667 1.557 4.721.925 9.539 1.7 14.259 2.482 2.629.39 8.274 1.314 8.322 1.266z" class="cls-11" transform="translate(-113.748 -358.825)"/>
                </g>
            </g>
            <g id="freepik--Wrench--inject-2" transform="translate(139.946 149.352)">
                <path id="Path_3090" d="M390.481 402.028a6.632 6.632 0 0 1 1.606 6.862l-3.845-3.845-2.871 1.363-1.363 2.871 3.845 3.893a6.725 6.725 0 1 1 2.628-11.145z" class="cls-14" transform="translate(-357.614 -378.567)"/>
                <path id="Path_3091" d="M337.028 367.381a6.632 6.632 0 0 1-1.606-6.862l3.845 3.845 2.871-1.364 1.363-2.871-3.845-3.893a6.725 6.725 0 1 1-2.628 11.145z" class="cls-14" transform="translate(-335.063 -355.892)"/>
                <path id="Rectangle_1126" d="M0 0H5.986V24.333H0z" class="cls-14" transform="rotate(-45 16.165 -2.348)"/>
            </g>
            <path id="Path_3092" d="M225.292 90.1l-2.385-10.22-3.115.73a2.569 2.569 0 0 1-2.482-.827c-.292-.389-.681-.73-1.022-1.119a2.5 2.5 0 0 1-.681-2.531l.876-3.066L206.41 70l-.973 3.066a2.358 2.358 0 0 1-1.947 1.7c-.535.1-1.119.243-1.655.389a2.389 2.389 0 0 1-2.482-.681l-2.239-2.336-7.689 7.251 2.239 2.385a2.433 2.433 0 0 1 .535 2.531 3.268 3.268 0 0 1-.292.73 4.109 4.109 0 0 0-.243.827 2.487 2.487 0 0 1-1.849 1.8l-3.115.73 2.385 10.22 3.115-.73a2.5 2.5 0 0 1 2.482.876c.292.389.681.73 1.022 1.119a2.5 2.5 0 0 1 .681 2.531l-.973 3.066 10.074 3.066.973-3.066a2.487 2.487 0 0 1 2-1.7c.535-.1.973-.243 1.509-.389a2.5 2.5 0 0 1 2.531.681l2.239 2.385 7.689-7.251-2.239-2.385a2.68 2.68 0 0 1-.535-2.531c.1-.243.146-.535.243-.73.1-.243.146-.535.243-.73a2.472 2.472 0 0 1 1.849-1.849zm-10.755.438a8.633 8.633 0 1 1-7.105-9.928 10.009 10.009 0 0 1 2.141.681 8.692 8.692 0 0 1 4.964 9.246z" class="cls-15" transform="translate(-118.957 -59.78)"/>
            <path id="Path_3093" d="M169.13 61.75l-1.509-6.473-2 .487a1.584 1.584 0 0 1-1.557-.535 9.338 9.338 0 0 0-.681-.73 1.545 1.545 0 0 1-.438-1.606l.584-1.947-6.37-1.946-.633 1.947a1.46 1.46 0 0 1-1.217 1.071 6.284 6.284 0 0 0-1.022.243 1.442 1.442 0 0 1-1.557-.438l-1.411-1.46-4.867 4.575 1.411 1.509a1.506 1.506 0 0 1 .341 1.606 2.035 2.035 0 0 1-.195.487 1.724 1.724 0 0 0-.146.535 1.525 1.525 0 0 1-1.168 1.119l-2 .487 1.509 6.473 2-.487a1.519 1.519 0 0 1 1.557.584 9.341 9.341 0 0 0 .681.73 1.545 1.545 0 0 1 .438 1.606l-.633 1.947 6.375 1.947.633-1.947a1.587 1.587 0 0 1 1.265-1.071 5.132 5.132 0 0 0 .925-.243 1.545 1.545 0 0 1 1.606.438l1.411 1.509 4.867-4.575-1.411-1.509a1.63 1.63 0 0 1-.341-1.606c.049-.146.1-.341.146-.487s.1-.341.146-.487a1.584 1.584 0 0 1 1.168-1.168zm-6.813.292a5.452 5.452 0 1 1-4.477-6.278 6.369 6.369 0 0 1 1.363.438 5.421 5.421 0 0 1 3.114 5.84z" class="cls-15" transform="translate(-97.397 -49)"/>
        </g>
        <g id="Group_11418" transform="translate(131.984 55.911)">
            <g id="Group_11408">
                <g id="Group_11406" transform="translate(.487 .584)">
                    <path id="Path_3094" d="M293.882 64.4h-48.374A23.418 23.418 0 0 0 222.1 87.808a23.607 23.607 0 0 0 14.016 21.51l-3.163 8.663 11.583-6.765h49.4a23.418 23.418 0 0 0 23.408-23.408A23.3 23.3 0 0 0 293.882 64.4z" class="cls-1" transform="translate(-222.1 -64.4)"/>
                </g>
                <g id="Group_11407">
                    <path id="Path_3095" d="M231.417 118.777l3.553-9.782A24.023 24.023 0 0 1 245.141 63.2h48.374a24.041 24.041 0 1 1 0 48.082h-49.3zm13.724-54.36a22.788 22.788 0 0 0-9.149 43.653l.487.243-2.823 7.495 10.171-5.986h49.639a22.776 22.776 0 1 0 0-45.551h-48.374v.146z" class="cls-16" transform="translate(-221.1 -63.2)"/>
                </g>
            </g>
            <g id="Group_11417" transform="translate(18.542 10.366)">
                <g id="Group_11410">
                    <g id="Group_11409">
                        <path id="Rectangle_1127" d="M0 0H62V1.265H0z" class="cls-16"/>
                    </g>
                </g>
                <g id="Group_11412" transform="translate(0 8.517)">
                    <g id="Group_11411">
                        <path id="Rectangle_1128" d="M0 0H62V1.265H0z" class="cls-16"/>
                    </g>
                </g>
                <g id="Group_11414" transform="translate(0 17.082)">
                    <g id="Group_11413">
                        <path id="Rectangle_1129" d="M0 0H62V1.265H0z" class="cls-16"/>
                    </g>
                </g>
                <g id="Group_11416" transform="translate(0 25.598)">
                    <g id="Group_11415">
                        <path id="Rectangle_1130" d="M0 0H27.642V1.265H0z" class="cls-16"/>
                    </g>
                </g>
            </g>
        </g>
    </g>
</svg>
